# MagicaVoxel @ Ephtracy

# group
g bench

# material
mtllib bench.mtl
usemtl palette

# normals
vn -1 0 0
vn 1 0 0
vn 0 0 1
vn 0 0 -1
vn 0 -1 0
vn 0 1 0

# texcoords
vt 0.927734 0.5
vt 0.951172 0.5
vt 0.955078 0.5

# verts
v -17 0 5
v -17 0 3
v -17 0 -3
v -17 0 -5
v -17 1 5
v -17 1 4
v -17 1 -4
v -17 1 -5
v -17 7 5
v -17 7 4
v -17 7 -4
v -17 7 -5
v -17 8 5
v -17 8 3
v -17 8 -3
v -17 8 -5
v -17 9 5
v -17 9 -5
v -17 14 -4
v -17 14 -5
v -17 18 -4
v -17 18 -5
v -14 9 -4
v -14 9 -5
v -14 13 -5
v -14 13 -6
v -14 14 -4
v -14 14 -5
v -14 18 -5
v -14 18 -6
v 12 9 -4
v 12 9 -5
v 12 13 -5
v 12 13 -6
v 12 14 -4
v 12 14 -5
v 12 18 -5
v 12 18 -6
v 15 0 5
v 15 0 3
v 15 0 -3
v 15 0 -5
v 15 1 5
v 15 1 4
v 15 1 -4
v 15 1 -5
v 15 7 5
v 15 7 4
v 15 7 -4
v 15 7 -5
v 15 8 5
v 15 8 3
v 15 8 -3
v 15 8 -5
v -15 0 5
v -15 0 3
v -15 0 -3
v -15 0 -5
v -15 1 5
v -15 1 4
v -15 1 -4
v -15 1 -5
v -15 7 5
v -15 7 4
v -15 7 -4
v -15 7 -5
v -15 8 5
v -15 8 3
v -15 8 -3
v -15 8 -5
v -12 9 -4
v -12 9 -5
v -12 13 -5
v -12 13 -6
v -12 14 -4
v -12 14 -5
v -12 18 -5
v -12 18 -6
v 14 9 -4
v 14 9 -5
v 14 13 -5
v 14 13 -6
v 14 14 -4
v 14 14 -5
v 14 18 -5
v 14 18 -6
v 17 0 5
v 17 0 3
v 17 0 -3
v 17 0 -5
v 17 1 5
v 17 1 4
v 17 1 -4
v 17 1 -5
v 17 7 5
v 17 7 4
v 17 7 -4
v 17 7 -5
v 17 8 5
v 17 8 3
v 17 8 -3
v 17 8 -5
v 17 9 5
v 17 9 -5
v 17 14 -4
v 17 14 -5
v 17 18 -4
v 17 18 -5
v -17 0 5
v -17 1 5
v -17 7 5
v -17 8 5
v -17 9 5
v -15 0 5
v -15 1 5
v -15 7 5
v -15 8 5
v 15 0 5
v 15 1 5
v 15 7 5
v 15 8 5
v 17 0 5
v 17 1 5
v 17 7 5
v 17 8 5
v 17 9 5
v -17 1 4
v -17 7 4
v -15 1 4
v -15 7 4
v 15 1 4
v 15 7 4
v 17 1 4
v 17 7 4
v -17 0 -3
v -17 8 -3
v -15 0 -3
v -15 8 -3
v 15 0 -3
v 15 8 -3
v 17 0 -3
v 17 8 -3
v -17 14 -4
v -17 18 -4
v -14 9 -4
v -14 14 -4
v -14 16 -4
v -14 17 -4
v -13 16 -4
v -13 17 -4
v -12 9 -4
v -12 14 -4
v 12 9 -4
v 12 14 -4
v 13 16 -4
v 13 17 -4
v 14 9 -4
v 14 14 -4
v 14 16 -4
v 14 17 -4
v 17 14 -4
v 17 18 -4
v -17 0 3
v -17 8 3
v -15 0 3
v -15 8 3
v 15 0 3
v 15 8 3
v 17 0 3
v 17 8 3
v -17 1 -4
v -17 7 -4
v -15 1 -4
v -15 7 -4
v 15 1 -4
v 15 7 -4
v 17 1 -4
v 17 7 -4
v -17 0 -5
v -17 1 -5
v -17 7 -5
v -17 8 -5
v -17 9 -5
v -17 14 -5
v -17 18 -5
v -15 0 -5
v -15 1 -5
v -15 7 -5
v -15 8 -5
v -14 9 -5
v -14 13 -5
v -14 14 -5
v -14 18 -5
v -12 9 -5
v -12 13 -5
v -12 14 -5
v -12 18 -5
v 12 9 -5
v 12 13 -5
v 12 14 -5
v 12 18 -5
v 14 9 -5
v 14 13 -5
v 14 14 -5
v 14 18 -5
v 15 0 -5
v 15 1 -5
v 15 7 -5
v 15 8 -5
v 17 0 -5
v 17 1 -5
v 17 7 -5
v 17 8 -5
v 17 9 -5
v 17 14 -5
v 17 18 -5
v -14 13 -6
v -14 18 -6
v -12 13 -6
v -12 18 -6
v 12 13 -6
v 12 18 -6
v 14 13 -6
v 14 18 -6
v -17 0 5
v -15 0 5
v 15 0 5
v 17 0 5
v -17 0 3
v -15 0 3
v 15 0 3
v 17 0 3
v -17 0 -3
v -15 0 -3
v 15 0 -3
v 17 0 -3
v -17 0 -5
v -15 0 -5
v 15 0 -5
v 17 0 -5
v -17 7 5
v -15 7 5
v 15 7 5
v 17 7 5
v -17 7 4
v -15 7 4
v 15 7 4
v 17 7 4
v -17 7 -4
v -15 7 -4
v 15 7 -4
v 17 7 -4
v -17 7 -5
v -15 7 -5
v 15 7 -5
v 17 7 -5
v -15 8 5
v 15 8 5
v -17 8 3
v -15 8 3
v 15 8 3
v 17 8 3
v -17 8 -3
v -15 8 -3
v 15 8 -3
v 17 8 -3
v -15 8 -5
v 15 8 -5
v -14 13 -5
v -12 13 -5
v 12 13 -5
v 14 13 -5
v -14 13 -6
v -12 13 -6
v 12 13 -6
v 14 13 -6
v -17 14 -4
v -14 14 -4
v -12 14 -4
v 12 14 -4
v 14 14 -4
v 17 14 -4
v -17 14 -5
v -14 14 -5
v -12 14 -5
v 12 14 -5
v 14 14 -5
v 17 14 -5
v -17 1 5
v -15 1 5
v 15 1 5
v 17 1 5
v -17 1 4
v -15 1 4
v 15 1 4
v 17 1 4
v -17 1 -4
v -15 1 -4
v 15 1 -4
v 17 1 -4
v -17 1 -5
v -15 1 -5
v 15 1 -5
v 17 1 -5
v -17 9 5
v 17 9 5
v -14 9 -4
v -12 9 -4
v 12 9 -4
v 14 9 -4
v -17 9 -5
v -14 9 -5
v -12 9 -5
v 12 9 -5
v 14 9 -5
v 17 9 -5
v -17 18 -4
v 17 18 -4
v -17 18 -5
v -14 18 -5
v -12 18 -5
v 12 18 -5
v 14 18 -5
v 17 18 -5
v -14 18 -6
v -12 18 -6
v 12 18 -6
v 14 18 -6

# faces
f 5/1/1 2/1/1 1/1/1
f 6/1/1 2/1/1 5/1/1
f 7/1/1 4/1/1 3/1/1
f 8/1/1 4/1/1 7/1/1
f 10/1/1 2/1/1 6/1/1
f 11/1/1 7/1/1 3/1/1
f 13/1/1 10/1/1 9/1/1
f 14/1/1 2/1/1 10/1/1
f 14/1/1 10/1/1 13/1/1
f 15/1/1 12/1/1 11/1/1
f 15/1/1 11/1/1 3/1/1
f 16/1/1 12/1/1 15/1/1
f 17/3/1 14/3/1 13/3/1
f 17/3/1 15/3/1 14/3/1
f 17/3/1 16/3/1 15/3/1
f 18/3/1 16/3/1 17/3/1
f 21/2/1 20/2/1 19/2/1
f 22/2/1 20/2/1 21/2/1
f 25/1/1 24/1/1 23/1/1
f 27/1/1 25/1/1 23/1/1
f 27/1/1 26/1/1 25/1/1
f 28/1/1 26/1/1 27/1/1
f 29/1/1 26/1/1 28/1/1
f 30/1/1 26/1/1 29/1/1
f 33/1/1 32/1/1 31/1/1
f 35/1/1 33/1/1 31/1/1
f 35/1/1 34/1/1 33/1/1
f 36/1/1 34/1/1 35/1/1
f 37/1/1 34/1/1 36/1/1
f 38/1/1 34/1/1 37/1/1
f 43/1/1 40/1/1 39/1/1
f 44/1/1 40/1/1 43/1/1
f 45/1/1 42/1/1 41/1/1
f 46/1/1 42/1/1 45/1/1
f 48/1/1 40/1/1 44/1/1
f 49/1/1 45/1/1 41/1/1
f 51/1/1 48/1/1 47/1/1
f 52/1/1 40/1/1 48/1/1
f 52/1/1 48/1/1 51/1/1
f 53/1/1 50/1/1 49/1/1
f 53/1/1 49/1/1 41/1/1
f 54/1/1 50/1/1 53/1/1
f 55/1/2 56/1/2 59/1/2
f 59/1/2 56/1/2 60/1/2
f 57/1/2 58/1/2 61/1/2
f 61/1/2 58/1/2 62/1/2
f 60/1/2 56/1/2 64/1/2
f 57/1/2 61/1/2 65/1/2
f 63/1/2 64/1/2 67/1/2
f 64/1/2 56/1/2 68/1/2
f 67/1/2 64/1/2 68/1/2
f 65/1/2 66/1/2 69/1/2
f 57/1/2 65/1/2 69/1/2
f 69/1/2 66/1/2 70/1/2
f 71/1/2 72/1/2 73/1/2
f 71/1/2 73/1/2 75/1/2
f 73/1/2 74/1/2 75/1/2
f 75/1/2 74/1/2 76/1/2
f 76/1/2 74/1/2 77/1/2
f 77/1/2 74/1/2 78/1/2
f 79/1/2 80/1/2 81/1/2
f 79/1/2 81/1/2 83/1/2
f 81/1/2 82/1/2 83/1/2
f 83/1/2 82/1/2 84/1/2
f 84/1/2 82/1/2 85/1/2
f 85/1/2 82/1/2 86/1/2
f 87/1/2 88/1/2 91/1/2
f 91/1/2 88/1/2 92/1/2
f 89/1/2 90/1/2 93/1/2
f 93/1/2 90/1/2 94/1/2
f 92/1/2 88/1/2 96/1/2
f 89/1/2 93/1/2 97/1/2
f 95/1/2 96/1/2 99/1/2
f 96/1/2 88/1/2 100/1/2
f 99/1/2 96/1/2 100/1/2
f 97/1/2 98/1/2 101/1/2
f 89/1/2 97/1/2 101/1/2
f 101/1/2 98/1/2 102/1/2
f 99/3/2 100/3/2 103/3/2
f 100/3/2 101/3/2 103/3/2
f 101/3/2 102/3/2 103/3/2
f 103/3/2 102/3/2 104/3/2
f 105/2/2 106/2/2 107/2/2
f 107/2/2 106/2/2 108/2/2
f 114/1/3 110/1/3 109/1/3
f 115/1/3 110/1/3 114/1/3
f 116/1/3 112/1/3 111/1/3
f 117/3/3 113/3/3 112/3/3
f 117/1/3 112/1/3 116/1/3
f 121/3/3 113/3/3 117/3/3
f 122/1/3 119/1/3 118/1/3
f 123/1/3 119/1/3 122/1/3
f 124/1/3 121/1/3 120/1/3
f 125/3/3 113/3/3 121/3/3
f 125/1/3 121/1/3 124/1/3
f 126/3/3 113/3/3 125/3/3
f 129/1/3 128/1/3 127/1/3
f 130/1/3 128/1/3 129/1/3
f 133/1/3 132/1/3 131/1/3
f 134/1/3 132/1/3 133/1/3
f 137/1/3 136/1/3 135/1/3
f 138/1/3 136/1/3 137/1/3
f 141/1/3 140/1/3 139/1/3
f 142/1/3 140/1/3 141/1/3
f 146/2/3 144/2/3 143/2/3
f 147/2/3 144/2/3 146/2/3
f 148/2/3 144/2/3 147/2/3
f 149/2/3 147/2/3 146/2/3
f 149/1/3 148/1/3 147/1/3
f 150/2/3 144/2/3 148/2/3
f 150/1/3 148/1/3 149/1/3
f 151/1/3 146/1/3 145/1/3
f 152/2/3 149/2/3 146/2/3
f 152/1/3 146/1/3 151/1/3
f 152/2/3 150/2/3 149/2/3
f 154/2/3 150/2/3 152/2/3
f 155/2/3 150/2/3 154/2/3
f 156/2/3 144/2/3 150/2/3
f 156/2/3 150/2/3 155/2/3
f 157/1/3 154/1/3 153/1/3
f 158/2/3 155/2/3 154/2/3
f 158/1/3 154/1/3 157/1/3
f 159/1/3 156/1/3 155/1/3
f 159/2/3 155/2/3 158/2/3
f 160/2/3 144/2/3 156/2/3
f 160/1/3 156/1/3 159/1/3
f 161/2/3 159/2/3 158/2/3
f 161/2/3 160/2/3 159/2/3
f 162/2/3 144/2/3 160/2/3
f 162/2/3 160/2/3 161/2/3
f 163/1/4 164/1/4 165/1/4
f 165/1/4 164/1/4 166/1/4
f 167/1/4 168/1/4 169/1/4
f 169/1/4 168/1/4 170/1/4
f 171/1/4 172/1/4 173/1/4
f 173/1/4 172/1/4 174/1/4
f 175/1/4 176/1/4 177/1/4
f 177/1/4 176/1/4 178/1/4
f 179/1/4 180/1/4 186/1/4
f 186/1/4 180/1/4 187/1/4
f 181/1/4 182/1/4 188/1/4
f 182/3/4 183/3/4 189/3/4
f 188/1/4 182/1/4 189/1/4
f 189/3/4 183/3/4 190/3/4
f 184/2/4 185/2/4 192/2/4
f 192/2/4 185/2/4 193/2/4
f 190/1/4 191/1/4 194/1/4
f 189/3/4 190/3/4 194/3/4
f 194/1/4 191/1/4 195/1/4
f 189/3/4 194/3/4 198/3/4
f 196/2/4 197/2/4 200/2/4
f 200/2/4 197/2/4 201/2/4
f 198/1/4 199/1/4 202/1/4
f 189/3/4 198/3/4 202/3/4
f 202/1/4 199/1/4 203/1/4
f 189/3/4 202/3/4 209/3/4
f 206/1/4 207/1/4 210/1/4
f 210/1/4 207/1/4 211/1/4
f 208/1/4 209/1/4 212/1/4
f 209/3/4 202/3/4 213/3/4
f 212/1/4 209/1/4 213/1/4
f 213/3/4 202/3/4 214/3/4
f 204/2/4 205/2/4 215/2/4
f 215/2/4 205/2/4 216/2/4
f 217/1/4 218/1/4 219/1/4
f 219/1/4 218/1/4 220/1/4
f 221/1/4 222/1/4 223/1/4
f 223/1/4 222/1/4 224/1/4
f 229/1/5 226/1/5 225/1/5
f 230/1/5 226/1/5 229/1/5
f 231/1/5 228/1/5 227/1/5
f 232/1/5 228/1/5 231/1/5
f 237/1/5 234/1/5 233/1/5
f 238/1/5 234/1/5 237/1/5
f 239/1/5 236/1/5 235/1/5
f 240/1/5 236/1/5 239/1/5
f 245/1/5 242/1/5 241/1/5
f 246/1/5 242/1/5 245/1/5
f 247/1/5 244/1/5 243/1/5
f 248/1/5 244/1/5 247/1/5
f 253/1/5 250/1/5 249/1/5
f 254/1/5 250/1/5 253/1/5
f 255/1/5 252/1/5 251/1/5
f 256/1/5 252/1/5 255/1/5
f 260/3/5 258/3/5 257/3/5
f 261/3/5 258/3/5 260/3/5
f 263/3/5 260/3/5 259/3/5
f 263/3/5 262/3/5 261/3/5
f 263/3/5 261/3/5 260/3/5
f 264/3/5 262/3/5 263/3/5
f 265/3/5 262/3/5 264/3/5
f 266/3/5 262/3/5 265/3/5
f 267/3/5 265/3/5 264/3/5
f 268/3/5 265/3/5 267/3/5
f 273/1/5 270/1/5 269/1/5
f 274/1/5 270/1/5 273/1/5
f 275/1/5 272/1/5 271/1/5
f 276/1/5 272/1/5 275/1/5
f 283/2/5 278/2/5 277/2/5
f 284/2/5 278/2/5 283/2/5
f 285/2/5 280/2/5 279/2/5
f 286/2/5 280/2/5 285/2/5
f 287/2/5 282/2/5 281/2/5
f 288/2/5 282/2/5 287/2/5
f 289/1/6 290/1/6 293/1/6
f 293/1/6 290/1/6 294/1/6
f 291/1/6 292/1/6 295/1/6
f 295/1/6 292/1/6 296/1/6
f 297/1/6 298/1/6 301/1/6
f 301/1/6 298/1/6 302/1/6
f 299/1/6 300/1/6 303/1/6
f 303/1/6 300/1/6 304/1/6
f 305/3/6 306/3/6 307/3/6
f 307/3/6 306/3/6 308/3/6
f 308/3/6 306/3/6 309/3/6
f 309/3/6 306/3/6 310/3/6
f 305/3/6 307/3/6 311/3/6
f 311/3/6 307/3/6 312/3/6
f 308/3/6 309/3/6 313/3/6
f 313/3/6 309/3/6 314/3/6
f 310/3/6 306/3/6 315/3/6
f 315/3/6 306/3/6 316/3/6
f 317/2/6 318/2/6 319/2/6
f 319/2/6 318/2/6 320/2/6
f 320/2/6 318/2/6 321/2/6
f 321/2/6 318/2/6 322/2/6
f 322/2/6 318/2/6 323/2/6
f 323/2/6 318/2/6 324/2/6
f 320/1/6 321/1/6 325/1/6
f 325/1/6 321/1/6 326/1/6
f 322/1/6 323/1/6 327/1/6
f 327/1/6 323/1/6 328/1/6
