# MagicaVoxel @ Ephtracy

# group
g house2

# material
mtllib house2.mtl
usemtl palette

# normals
vn -1 0 0
vn 1 0 0
vn 0 0 1
vn 0 0 -1
vn 0 -1 0
vn 0 1 0

# texcoords
vt 0.529297 0.5
vt 0.537109 0.5
vt 0.552734 0.5
vt 0.560547 0.5
vt 0.748047 0.5
vt 0.900391 0.5

# verts
v -20 0 -8
v -20 0 -9
v -20 33 6
v -20 33 -8
v -20 34 5
v -20 34 -9
v -20 49 6
v -20 49 5
v -19 0 12
v -19 0 -8
v -19 0 -9
v -19 0 -14
v -19 33 6
v -19 33 -8
v -19 34 5
v -19 34 -9
v -19 45 12
v -19 45 6
v -19 45 5
v -19 45 -14
v -19 46 13
v -19 46 12
v -19 47 13
v -19 47 12
v -19 49 12
v -19 49 6
v -19 49 5
v -19 49 -14
v -15 14 14
v -15 14 12
v -15 25 14
v -15 25 12
v -15 26 14
v -15 26 12
v -15 29 14
v -15 29 12
v -15 40 14
v -15 40 12
v -15 41 14
v -15 41 12
v -13 14 15
v -13 14 14
v -13 15 15
v -13 15 14
v -13 29 15
v -13 29 14
v -13 30 15
v -13 30 14
v -9 15 14
v -9 15 13
v -9 25 14
v -9 25 13
v -9 30 14
v -9 30 13
v -9 40 14
v -9 40 13
v -1 15 14
v -1 15 13
v -1 25 14
v -1 25 13
v -1 30 14
v -1 30 13
v -1 40 14
v -1 40 13
v 3 14 15
v 3 14 14
v 3 15 15
v 3 15 14
v 3 29 15
v 3 29 14
v 3 30 15
v 3 30 14
v 4 46 -3
v 4 46 -10
v 4 47 -3
v 4 47 -10
v 5 47 -4
v 5 47 -9
v 5 48 -4
v 5 48 -9
v 6 48 -5
v 6 48 -8
v 6 49 -5
v 6 49 -8
v 8 15 14
v 8 15 13
v 8 25 14
v 8 25 13
v 8 30 14
v 8 30 13
v 8 40 14
v 8 40 13
v 14 15 14
v 14 15 13
v 14 25 14
v 14 25 13
v 14 30 14
v 14 30 13
v 14 40 14
v 14 40 13
v 15 46 -5
v 15 46 -6
v 15 49 -5
v 15 49 -6
v 18 46 8
v 18 46 -13
v 18 48 -5
v 18 48 -6
v 18 49 8
v 18 49 -5
v 18 49 -6
v 18 49 -13
v -18 46 8
v -18 46 -13
v -18 49 8
v -18 49 -13
v -14 15 14
v -14 15 13
v -14 25 14
v -14 25 13
v -14 30 14
v -14 30 13
v -14 40 14
v -14 40 13
v -8 15 14
v -8 15 13
v -8 25 14
v -8 25 13
v -8 30 14
v -8 30 13
v -8 40 14
v -8 40 13
v -3 14 15
v -3 14 14
v -3 15 15
v -3 15 14
v -3 29 15
v -3 29 14
v -3 30 15
v -3 30 14
v 1 15 14
v 1 15 13
v 1 25 14
v 1 25 13
v 1 30 14
v 1 30 13
v 1 40 14
v 1 40 13
v 9 15 14
v 9 15 13
v 9 25 14
v 9 25 13
v 9 30 14
v 9 30 13
v 9 40 14
v 9 40 13
v 12 48 -5
v 12 48 -8
v 12 49 -5
v 12 49 -8
v 13 14 15
v 13 14 14
v 13 15 15
v 13 15 14
v 13 29 15
v 13 29 14
v 13 30 15
v 13 30 14
v 13 47 -4
v 13 47 -9
v 13 48 -4
v 13 48 -9
v 14 46 -3
v 14 46 -10
v 14 47 -3
v 14 47 -10
v 15 14 14
v 15 14 12
v 15 25 14
v 15 25 12
v 15 26 14
v 15 26 12
v 15 29 14
v 15 29 12
v 15 40 14
v 15 40 12
v 15 41 14
v 15 41 12
v 16 46 -5
v 16 46 -6
v 16 48 -5
v 16 48 -6
v 19 0 12
v 19 0 -14
v 19 9 -5
v 19 9 -6
v 19 29 -8
v 19 29 -14
v 19 32 -10
v 19 32 -14
v 19 45 12
v 19 45 -5
v 19 45 -6
v 19 45 -8
v 19 45 -10
v 19 45 -14
v 19 46 13
v 19 46 12
v 19 47 13
v 19 47 12
v 19 49 12
v 19 49 -5
v 19 49 -6
v 19 49 -8
v 19 49 -10
v 19 49 -14
v 20 9 -5
v 20 9 -6
v 20 49 -5
v 20 49 -6
v 21 29 -8
v 21 29 -14
v 21 32 -10
v 21 32 -14
v 21 49 -8
v 21 49 -10
v -13 14 15
v -13 15 15
v -13 29 15
v -13 30 15
v -3 14 15
v -3 15 15
v -3 29 15
v -3 30 15
v 3 14 15
v 3 15 15
v 3 29 15
v 3 30 15
v 13 14 15
v 13 15 15
v 13 29 15
v 13 30 15
v -15 14 14
v -15 25 14
v -15 26 14
v -15 29 14
v -15 40 14
v -15 41 14
v -14 15 14
v -14 25 14
v -14 30 14
v -14 40 14
v -13 14 14
v -13 15 14
v -13 29 14
v -13 30 14
v -9 15 14
v -9 25 14
v -9 30 14
v -9 40 14
v -8 15 14
v -8 25 14
v -8 30 14
v -8 40 14
v -3 14 14
v -3 15 14
v -3 29 14
v -3 30 14
v -1 14 14
v -1 15 14
v -1 25 14
v -1 29 14
v -1 30 14
v -1 40 14
v 1 14 14
v 1 15 14
v 1 25 14
v 1 29 14
v 1 30 14
v 1 40 14
v 3 14 14
v 3 15 14
v 3 29 14
v 3 30 14
v 8 15 14
v 8 25 14
v 8 30 14
v 8 40 14
v 9 15 14
v 9 25 14
v 9 30 14
v 9 40 14
v 13 14 14
v 13 15 14
v 13 29 14
v 13 30 14
v 14 15 14
v 14 25 14
v 14 30 14
v 14 40 14
v 15 14 14
v 15 25 14
v 15 26 14
v 15 29 14
v 15 40 14
v 15 41 14
v -19 46 13
v -19 47 13
v -14 15 13
v -14 25 13
v -14 30 13
v -14 40 13
v -9 15 13
v -9 25 13
v -9 30 13
v -9 40 13
v -8 15 13
v -8 25 13
v -8 30 13
v -8 40 13
v -3 15 13
v -3 25 13
v -3 30 13
v -3 40 13
v -1 15 13
v -1 25 13
v -1 30 13
v -1 40 13
v 1 15 13
v 1 25 13
v 1 30 13
v 1 40 13
v 3 15 13
v 3 25 13
v 3 30 13
v 3 40 13
v 8 15 13
v 8 25 13
v 8 30 13
v 8 40 13
v 9 15 13
v 9 25 13
v 9 30 13
v 9 40 13
v 14 15 13
v 14 25 13
v 14 30 13
v 14 40 13
v 19 46 13
v 19 47 13
v -19 0 12
v -19 45 12
v -19 46 12
v -19 47 12
v -19 49 12
v -18 0 12
v -18 45 12
v -15 14 12
v -15 25 12
v -15 26 12
v -15 29 12
v -15 40 12
v -15 41 12
v 15 14 12
v 15 25 12
v 15 26 12
v 15 29 12
v 15 40 12
v 15 41 12
v 18 0 12
v 18 45 12
v 19 0 12
v 19 45 12
v 19 46 12
v 19 47 12
v 19 49 12
v -20 33 6
v -20 49 6
v -19 33 6
v -19 45 6
v -19 49 6
v 4 46 -3
v 4 47 -3
v 14 46 -3
v 14 47 -3
v 5 47 -4
v 5 48 -4
v 13 47 -4
v 13 48 -4
v 6 48 -5
v 6 49 -5
v 12 48 -5
v 12 49 -5
v 15 46 -5
v 15 49 -5
v 16 46 -5
v 16 48 -5
v 18 48 -5
v 18 49 -5
v 19 9 -5
v 19 45 -5
v 19 49 -5
v 20 9 -5
v 20 49 -5
v -20 0 -8
v -20 33 -8
v -19 0 -8
v -19 33 -8
v 19 29 -8
v 19 45 -8
v 19 49 -8
v 21 29 -8
v 21 49 -8
v -18 46 -13
v -18 49 -13
v 18 46 -13
v 18 49 -13
v -18 46 8
v -18 49 8
v 18 46 8
v 18 49 8
v -20 34 5
v -20 49 5
v -19 34 5
v -19 45 5
v -19 49 5
v 15 46 -6
v 15 49 -6
v 16 46 -6
v 16 48 -6
v 18 48 -6
v 18 49 -6
v 19 9 -6
v 19 45 -6
v 19 49 -6
v 20 9 -6
v 20 49 -6
v 6 48 -8
v 6 49 -8
v 12 48 -8
v 12 49 -8
v -20 0 -9
v -20 34 -9
v -19 0 -9
v -19 34 -9
v 5 47 -9
v 5 48 -9
v 13 47 -9
v 13 48 -9
v 4 46 -10
v 4 47 -10
v 14 46 -10
v 14 47 -10
v 19 32 -10
v 19 45 -10
v 19 49 -10
v 21 32 -10
v 21 49 -10
v -19 0 -14
v -19 45 -14
v -19 49 -14
v -18 0 -14
v -18 45 -14
v 18 0 -14
v 18 45 -14
v 19 0 -14
v 19 29 -14
v 19 32 -14
v 19 45 -14
v 19 49 -14
v 21 29 -14
v 21 32 -14
v -19 0 12
v -18 0 12
v 18 0 12
v 19 0 12
v -20 0 -8
v -19 0 -8
v -20 0 -9
v -19 0 -9
v -18 0 -13
v 18 0 -13
v -19 0 -14
v -18 0 -14
v 18 0 -14
v 19 0 -14
v 19 9 -5
v 20 9 -5
v 19 9 -6
v 20 9 -6
v -13 14 15
v -3 14 15
v 3 14 15
v 13 14 15
v -15 14 14
v -13 14 14
v -3 14 14
v -1 14 14
v 1 14 14
v 3 14 14
v 13 14 14
v 15 14 14
v -1 14 13
v 1 14 13
v -15 14 12
v 15 14 12
v -14 25 14
v -9 25 14
v -8 25 14
v -1 25 14
v 1 25 14
v 8 25 14
v 9 25 14
v 14 25 14
v -14 25 13
v -9 25 13
v -8 25 13
v -3 25 13
v -1 25 13
v 1 25 13
v 3 25 13
v 8 25 13
v 9 25 13
v 14 25 13
v -13 29 15
v -3 29 15
v 3 29 15
v 13 29 15
v -15 29 14
v -13 29 14
v -3 29 14
v -1 29 14
v 1 29 14
v 3 29 14
v 13 29 14
v 15 29 14
v -1 29 13
v 1 29 13
v -15 29 12
v 15 29 12
v 19 29 -8
v 21 29 -8
v 19 29 -14
v 21 29 -14
v -20 33 6
v -19 33 6
v -20 33 -8
v -19 33 -8
v -14 40 14
v -9 40 14
v -8 40 14
v -1 40 14
v 1 40 14
v 8 40 14
v 9 40 14
v 14 40 14
v -14 40 13
v -9 40 13
v -8 40 13
v -3 40 13
v -1 40 13
v 1 40 13
v 3 40 13
v 8 40 13
v 9 40 13
v 14 40 13
v -19 46 13
v 19 46 13
v -19 46 12
v 19 46 12
v 16 48 -5
v 18 48 -5
v 16 48 -6
v 18 48 -6
v -13 15 15
v -3 15 15
v 3 15 15
v 13 15 15
v -14 15 14
v -13 15 14
v -9 15 14
v -8 15 14
v -3 15 14
v -1 15 14
v 1 15 14
v 3 15 14
v 8 15 14
v 9 15 14
v 13 15 14
v 14 15 14
v -14 15 13
v -9 15 13
v -8 15 13
v -3 15 13
v -1 15 13
v 1 15 13
v 3 15 13
v 8 15 13
v 9 15 13
v 14 15 13
v -15 26 14
v 15 26 14
v -15 26 12
v 15 26 12
v -13 30 15
v -3 30 15
v 3 30 15
v 13 30 15
v -14 30 14
v -13 30 14
v -9 30 14
v -8 30 14
v -3 30 14
v -1 30 14
v 1 30 14
v 3 30 14
v 8 30 14
v 9 30 14
v 13 30 14
v 14 30 14
v -14 30 13
v -9 30 13
v -8 30 13
v -3 30 13
v -1 30 13
v 1 30 13
v 3 30 13
v 8 30 13
v 9 30 13
v 14 30 13
v 19 32 -10
v 21 32 -10
v 19 32 -14
v 21 32 -14
v -20 34 5
v -19 34 5
v -20 34 -9
v -19 34 -9
v -15 41 14
v 15 41 14
v -15 41 12
v 15 41 12
v -18 46 8
v 18 46 8
v 4 46 -3
v 14 46 -3
v 15 46 -5
v 16 46 -5
v 15 46 -6
v 16 46 -6
v 4 46 -10
v 14 46 -10
v -18 46 -13
v 18 46 -13
v -19 47 13
v 19 47 13
v -19 47 12
v 19 47 12
v 4 47 -3
v 14 47 -3
v 5 47 -4
v 13 47 -4
v 5 47 -9
v 13 47 -9
v 4 47 -10
v 14 47 -10
v 5 48 -4
v 13 48 -4
v 6 48 -5
v 12 48 -5
v 6 48 -8
v 12 48 -8
v 5 48 -9
v 13 48 -9
v -19 49 12
v 19 49 12
v -18 49 8
v 18 49 8
v -20 49 6
v -19 49 6
v -20 49 5
v -19 49 5
v 6 49 -5
v 12 49 -5
v 15 49 -5
v 18 49 -5
v 19 49 -5
v 20 49 -5
v 15 49 -6
v 18 49 -6
v 19 49 -6
v 20 49 -6
v 6 49 -8
v 12 49 -8
v 19 49 -8
v 21 49 -8
v 19 49 -10
v 21 49 -10
v -18 49 -13
v 18 49 -13
v -19 49 -14
v 19 49 -14

# faces
f 4/6/1 2/6/1 1/6/1
f 5/6/1 4/6/1 3/6/1
f 6/6/1 2/6/1 4/6/1
f 6/6/1 4/6/1 5/6/1
f 7/6/1 5/6/1 3/6/1
f 8/6/1 5/6/1 7/6/1
f 13/4/1 10/4/1 9/4/1
f 14/4/1 10/4/1 13/4/1
f 16/4/1 12/4/1 11/4/1
f 17/4/1 13/4/1 9/4/1
f 18/4/1 13/4/1 17/4/1
f 19/4/1 16/4/1 15/4/1
f 20/4/1 12/4/1 16/4/1
f 20/4/1 16/4/1 19/4/1
f 22/6/1 18/6/1 17/6/1
f 23/6/1 22/6/1 21/6/1
f 24/6/1 18/6/1 22/6/1
f 24/6/1 22/6/1 23/6/1
f 25/6/1 18/6/1 24/6/1
f 26/6/1 18/6/1 25/6/1
f 27/6/1 20/6/1 19/6/1
f 28/6/1 20/6/1 27/6/1
f 31/1/1 30/1/1 29/1/1
f 32/1/1 30/1/1 31/1/1
f 33/3/1 32/3/1 31/3/1
f 34/3/1 32/3/1 33/3/1
f 37/1/1 36/1/1 35/1/1
f 38/1/1 36/1/1 37/1/1
f 39/3/1 38/3/1 37/3/1
f 40/3/1 38/3/1 39/3/1
f 43/1/1 42/1/1 41/1/1
f 44/1/1 42/1/1 43/1/1
f 47/1/1 46/1/1 45/1/1
f 48/1/1 46/1/1 47/1/1
f 51/1/1 50/1/1 49/1/1
f 52/1/1 50/1/1 51/1/1
f 55/1/1 54/1/1 53/1/1
f 56/1/1 54/1/1 55/1/1
f 59/4/1 58/4/1 57/4/1
f 60/4/1 58/4/1 59/4/1
f 63/4/1 62/4/1 61/4/1
f 64/4/1 62/4/1 63/4/1
f 67/1/1 66/1/1 65/1/1
f 68/1/1 66/1/1 67/1/1
f 71/1/1 70/1/1 69/1/1
f 72/1/1 70/1/1 71/1/1
f 75/6/1 74/6/1 73/6/1
f 76/6/1 74/6/1 75/6/1
f 79/6/1 78/6/1 77/6/1
f 80/6/1 78/6/1 79/6/1
f 83/6/1 82/6/1 81/6/1
f 84/6/1 82/6/1 83/6/1
f 87/1/1 86/1/1 85/1/1
f 88/1/1 86/1/1 87/1/1
f 91/1/1 90/1/1 89/1/1
f 92/1/1 90/1/1 91/1/1
f 95/1/1 94/1/1 93/1/1
f 96/1/1 94/1/1 95/1/1
f 99/1/1 98/1/1 97/1/1
f 100/1/1 98/1/1 99/1/1
f 103/6/1 102/6/1 101/6/1
f 104/6/1 102/6/1 103/6/1
f 107/6/1 106/6/1 105/6/1
f 108/6/1 106/6/1 107/6/1
f 109/6/1 107/6/1 105/6/1
f 110/6/1 107/6/1 109/6/1
f 111/6/1 106/6/1 108/6/1
f 112/6/1 106/6/1 111/6/1
f 113/6/2 114/6/2 115/6/2
f 115/6/2 114/6/2 116/6/2
f 117/1/2 118/1/2 119/1/2
f 119/1/2 118/1/2 120/1/2
f 121/1/2 122/1/2 123/1/2
f 123/1/2 122/1/2 124/1/2
f 125/1/2 126/1/2 127/1/2
f 127/1/2 126/1/2 128/1/2
f 129/1/2 130/1/2 131/1/2
f 131/1/2 130/1/2 132/1/2
f 133/1/2 134/1/2 135/1/2
f 135/1/2 134/1/2 136/1/2
f 137/1/2 138/1/2 139/1/2
f 139/1/2 138/1/2 140/1/2
f 141/4/2 142/4/2 143/4/2
f 143/4/2 142/4/2 144/4/2
f 145/4/2 146/4/2 147/4/2
f 147/4/2 146/4/2 148/4/2
f 149/1/2 150/1/2 151/1/2
f 151/1/2 150/1/2 152/1/2
f 153/1/2 154/1/2 155/1/2
f 155/1/2 154/1/2 156/1/2
f 157/6/2 158/6/2 159/6/2
f 159/6/2 158/6/2 160/6/2
f 161/1/2 162/1/2 163/1/2
f 163/1/2 162/1/2 164/1/2
f 165/1/2 166/1/2 167/1/2
f 167/1/2 166/1/2 168/1/2
f 169/6/2 170/6/2 171/6/2
f 171/6/2 170/6/2 172/6/2
f 173/6/2 174/6/2 175/6/2
f 175/6/2 174/6/2 176/6/2
f 177/1/2 178/1/2 179/1/2
f 179/1/2 178/1/2 180/1/2
f 179/3/2 180/3/2 181/3/2
f 181/3/2 180/3/2 182/3/2
f 183/1/2 184/1/2 185/1/2
f 185/1/2 184/1/2 186/1/2
f 185/3/2 186/3/2 187/3/2
f 187/3/2 186/3/2 188/3/2
f 189/6/2 190/6/2 191/6/2
f 191/6/2 190/6/2 192/6/2
f 193/4/2 194/4/2 195/4/2
f 195/4/2 194/4/2 196/4/2
f 196/4/2 194/4/2 197/4/2
f 197/4/2 194/4/2 198/4/2
f 193/4/2 195/4/2 201/4/2
f 201/4/2 195/4/2 202/4/2
f 196/4/2 197/4/2 203/4/2
f 203/4/2 197/4/2 204/4/2
f 199/4/2 200/4/2 205/4/2
f 205/4/2 200/4/2 206/4/2
f 201/6/2 202/6/2 208/6/2
f 207/6/2 208/6/2 209/6/2
f 208/6/2 202/6/2 210/6/2
f 209/6/2 208/6/2 210/6/2
f 210/6/2 202/6/2 211/6/2
f 211/6/2 202/6/2 212/6/2
f 203/6/2 204/6/2 213/6/2
f 213/6/2 204/6/2 214/6/2
f 205/6/2 206/6/2 215/6/2
f 215/6/2 206/6/2 216/6/2
f 217/6/2 218/6/2 219/6/2
f 219/6/2 218/6/2 220/6/2
f 221/6/2 222/6/2 223/6/2
f 223/6/2 222/6/2 224/6/2
f 221/6/2 223/6/2 225/6/2
f 225/6/2 223/6/2 226/6/2
f 231/1/3 228/1/3 227/1/3
f 232/1/3 228/1/3 231/1/3
f 233/1/3 230/1/3 229/1/3
f 234/1/3 230/1/3 233/1/3
f 239/1/3 236/1/3 235/1/3
f 240/1/3 236/1/3 239/1/3
f 241/1/3 238/1/3 237/1/3
f 242/1/3 238/1/3 241/1/3
f 249/1/3 244/1/3 243/1/3
f 250/3/3 245/3/3 244/3/3
f 250/1/3 244/1/3 249/1/3
f 251/1/3 247/1/3 246/1/3
f 252/3/3 248/3/3 247/3/3
f 252/1/3 247/1/3 251/1/3
f 253/1/3 249/1/3 243/1/3
f 254/1/3 249/1/3 253/1/3
f 255/1/3 251/1/3 246/1/3
f 256/1/3 251/1/3 255/1/3
f 258/3/3 245/3/3 250/3/3
f 260/3/3 248/3/3 252/3/3
f 261/1/3 258/1/3 257/1/3
f 262/3/3 245/3/3 258/3/3
f 262/1/3 258/1/3 261/1/3
f 263/1/3 260/1/3 259/1/3
f 264/3/3 248/3/3 260/3/3
f 264/1/3 260/1/3 263/1/3
f 269/1/3 266/1/3 265/1/3
f 270/1/3 266/1/3 269/1/3
f 271/3/3 245/3/3 262/3/3
f 272/1/3 268/1/3 267/1/3
f 273/1/3 268/1/3 272/1/3
f 274/3/3 248/3/3 264/3/3
f 275/4/3 270/4/3 269/4/3
f 275/4/3 271/4/3 270/4/3
f 276/4/3 271/4/3 275/4/3
f 277/3/3 245/3/3 271/3/3
f 277/4/3 271/4/3 276/4/3
f 278/4/3 274/4/3 273/4/3
f 278/4/3 273/4/3 272/4/3
f 279/4/3 274/4/3 278/4/3
f 280/3/3 248/3/3 274/3/3
f 280/4/3 274/4/3 279/4/3
f 281/1/3 276/1/3 275/1/3
f 282/1/3 276/1/3 281/1/3
f 283/1/3 279/1/3 278/1/3
f 284/1/3 279/1/3 283/1/3
f 286/3/3 245/3/3 277/3/3
f 288/3/3 248/3/3 280/3/3
f 289/1/3 286/1/3 285/1/3
f 290/3/3 245/3/3 286/3/3
f 290/1/3 286/1/3 289/1/3
f 291/1/3 288/1/3 287/1/3
f 292/3/3 248/3/3 288/3/3
f 292/1/3 288/1/3 291/1/3
f 297/1/3 294/1/3 293/1/3
f 298/3/3 245/3/3 290/3/3
f 299/1/3 296/1/3 295/1/3
f 300/3/3 248/3/3 292/3/3
f 301/1/3 297/1/3 293/1/3
f 301/1/3 298/1/3 297/1/3
f 302/3/3 245/3/3 298/3/3
f 302/1/3 298/1/3 301/1/3
f 303/3/3 245/3/3 302/3/3
f 304/1/3 300/1/3 299/1/3
f 304/1/3 299/1/3 295/1/3
f 305/3/3 248/3/3 300/3/3
f 305/1/3 300/1/3 304/1/3
f 306/3/3 248/3/3 305/3/3
f 313/5/3 310/5/3 309/5/3
f 314/5/3 310/5/3 313/5/3
f 315/5/3 312/5/3 311/5/3
f 316/5/3 312/5/3 315/5/3
f 321/5/3 318/5/3 317/5/3
f 322/5/3 318/5/3 321/5/3
f 323/5/3 320/5/3 319/5/3
f 324/5/3 320/5/3 323/5/3
f 325/1/3 322/1/3 321/1/3
f 326/1/3 322/1/3 325/1/3
f 327/1/3 324/1/3 323/1/3
f 328/1/3 324/1/3 327/1/3
f 333/1/3 330/1/3 329/1/3
f 334/1/3 330/1/3 333/1/3
f 335/1/3 332/1/3 331/1/3
f 336/1/3 332/1/3 335/1/3
f 337/5/3 334/5/3 333/5/3
f 338/5/3 334/5/3 337/5/3
f 339/5/3 336/5/3 335/5/3
f 340/5/3 336/5/3 339/5/3
f 345/5/3 342/5/3 341/5/3
f 346/5/3 342/5/3 345/5/3
f 347/5/3 344/5/3 343/5/3
f 348/5/3 344/5/3 347/5/3
f 349/6/3 308/6/3 307/6/3
f 350/6/3 308/6/3 349/6/3
f 356/4/3 352/4/3 351/4/3
f 357/6/3 353/6/3 352/6/3
f 357/4/3 352/4/3 356/4/3
f 358/2/3 357/2/3 356/2/3
f 359/2/3 357/2/3 358/2/3
f 360/2/3 357/2/3 359/2/3
f 361/2/3 357/2/3 360/2/3
f 362/2/3 357/2/3 361/2/3
f 363/2/3 357/2/3 362/2/3
f 364/2/3 358/2/3 356/2/3
f 366/2/3 361/2/3 360/2/3
f 367/2/3 361/2/3 366/2/3
f 369/2/3 357/2/3 363/2/3
f 370/2/3 368/2/3 367/2/3
f 370/2/3 369/2/3 368/2/3
f 370/2/3 365/2/3 364/2/3
f 370/2/3 364/2/3 356/2/3
f 370/2/3 367/2/3 366/2/3
f 370/2/3 366/2/3 365/2/3
f 371/6/3 353/6/3 357/6/3
f 371/2/3 369/2/3 370/2/3
f 371/2/3 357/2/3 369/2/3
f 372/4/3 371/4/3 370/4/3
f 373/6/3 353/6/3 371/6/3
f 373/4/3 371/4/3 372/4/3
f 374/6/3 353/6/3 373/6/3
f 375/6/3 355/6/3 354/6/3
f 376/6/3 355/6/3 375/6/3
f 379/6/3 378/6/3 377/6/3
f 380/6/3 378/6/3 379/6/3
f 381/6/3 378/6/3 380/6/3
f 384/6/3 383/6/3 382/6/3
f 385/6/3 383/6/3 384/6/3
f 388/6/3 387/6/3 386/6/3
f 389/6/3 387/6/3 388/6/3
f 392/6/3 391/6/3 390/6/3
f 393/6/3 391/6/3 392/6/3
f 396/6/3 395/6/3 394/6/3
f 397/6/3 395/6/3 396/6/3
f 398/6/3 395/6/3 397/6/3
f 399/6/3 395/6/3 398/6/3
f 403/6/3 401/6/3 400/6/3
f 403/6/3 402/6/3 401/6/3
f 404/6/3 402/6/3 403/6/3
f 407/6/3 406/6/3 405/6/3
f 408/6/3 406/6/3 407/6/3
f 412/6/3 410/6/3 409/6/3
f 412/6/3 411/6/3 410/6/3
f 413/6/3 411/6/3 412/6/3
f 416/6/3 415/6/3 414/6/3
f 417/6/3 415/6/3 416/6/3
f 418/6/4 419/6/4 420/6/4
f 420/6/4 419/6/4 421/6/4
f 422/6/4 423/6/4 424/6/4
f 424/6/4 423/6/4 425/6/4
f 425/6/4 423/6/4 426/6/4
f 427/6/4 428/6/4 429/6/4
f 429/6/4 428/6/4 430/6/4
f 430/6/4 428/6/4 431/6/4
f 431/6/4 428/6/4 432/6/4
f 433/6/4 434/6/4 436/6/4
f 434/6/4 435/6/4 436/6/4
f 436/6/4 435/6/4 437/6/4
f 438/6/4 439/6/4 440/6/4
f 440/6/4 439/6/4 441/6/4
f 442/6/4 443/6/4 444/6/4
f 444/6/4 443/6/4 445/6/4
f 446/6/4 447/6/4 448/6/4
f 448/6/4 447/6/4 449/6/4
f 450/6/4 451/6/4 452/6/4
f 452/6/4 451/6/4 453/6/4
f 454/6/4 455/6/4 457/6/4
f 455/6/4 456/6/4 457/6/4
f 457/6/4 456/6/4 458/6/4
f 459/4/4 460/4/4 462/4/4
f 460/6/4 461/6/4 463/6/4
f 462/4/4 460/4/4 463/4/4
f 462/3/4 463/3/4 464/3/4
f 463/6/4 461/6/4 465/6/4
f 464/3/4 463/3/4 465/3/4
f 464/4/4 465/4/4 466/4/4
f 466/4/4 465/4/4 467/4/4
f 467/4/4 465/4/4 468/4/4
f 465/6/4 461/6/4 469/6/4
f 468/4/4 465/4/4 469/4/4
f 469/6/4 461/6/4 470/6/4
f 467/6/4 468/6/4 471/6/4
f 471/6/4 468/6/4 472/6/4
f 478/4/5 474/4/5 473/4/5
f 479/6/5 478/6/5 477/6/5
f 480/4/5 474/4/5 478/4/5
f 480/6/5 478/6/5 479/6/5
f 481/2/5 475/2/5 474/2/5
f 481/4/5 474/4/5 480/4/5
f 482/4/5 476/4/5 475/4/5
f 482/2/5 475/2/5 481/2/5
f 483/4/5 481/4/5 480/4/5
f 484/3/5 482/3/5 481/3/5
f 484/4/5 481/4/5 483/4/5
f 485/4/5 476/4/5 482/4/5
f 485/3/5 482/3/5 484/3/5
f 486/4/5 476/4/5 485/4/5
f 489/6/5 488/6/5 487/6/5
f 490/6/5 488/6/5 489/6/5
f 496/1/5 492/1/5 491/1/5
f 497/1/5 492/1/5 496/1/5
f 500/1/5 494/1/5 493/1/5
f 501/1/5 494/1/5 500/1/5
f 503/4/5 499/4/5 498/4/5
f 503/1/5 496/1/5 495/1/5
f 503/1/5 497/1/5 496/1/5
f 503/1/5 498/1/5 497/1/5
f 504/1/5 502/1/5 501/1/5
f 504/4/5 499/4/5 503/4/5
f 504/1/5 501/1/5 500/1/5
f 504/1/5 500/1/5 499/1/5
f 505/1/5 503/1/5 495/1/5
f 505/1/5 504/1/5 503/1/5
f 506/1/5 502/1/5 504/1/5
f 506/1/5 504/1/5 505/1/5
f 515/3/5 508/3/5 507/3/5
f 516/3/5 508/3/5 515/3/5
f 517/3/5 510/3/5 509/3/5
f 518/3/5 510/3/5 517/3/5
f 519/3/5 510/3/5 518/3/5
f 520/3/5 512/3/5 511/3/5
f 521/3/5 512/3/5 520/3/5
f 522/3/5 512/3/5 521/3/5
f 523/3/5 514/3/5 513/3/5
f 524/3/5 514/3/5 523/3/5
f 530/1/5 526/1/5 525/1/5
f 531/1/5 526/1/5 530/1/5
f 534/1/5 528/1/5 527/1/5
f 535/1/5 528/1/5 534/1/5
f 537/4/5 533/4/5 532/4/5
f 537/1/5 530/1/5 529/1/5
f 537/1/5 531/1/5 530/1/5
f 537/1/5 532/1/5 531/1/5
f 538/1/5 536/1/5 535/1/5
f 538/4/5 533/4/5 537/4/5
f 538/1/5 535/1/5 534/1/5
f 538/1/5 534/1/5 533/1/5
f 539/1/5 537/1/5 529/1/5
f 539/1/5 538/1/5 537/1/5
f 540/1/5 536/1/5 538/1/5
f 540/1/5 538/1/5 539/1/5
f 543/6/5 542/6/5 541/6/5
f 544/6/5 542/6/5 543/6/5
f 547/6/5 546/6/5 545/6/5
f 548/6/5 546/6/5 547/6/5
f 557/3/5 550/3/5 549/3/5
f 558/3/5 550/3/5 557/3/5
f 559/3/5 552/3/5 551/3/5
f 560/3/5 552/3/5 559/3/5
f 561/3/5 552/3/5 560/3/5
f 562/3/5 554/3/5 553/3/5
f 563/3/5 554/3/5 562/3/5
f 564/3/5 554/3/5 563/3/5
f 565/3/5 556/3/5 555/3/5
f 566/3/5 556/3/5 565/3/5
f 569/6/5 568/6/5 567/6/5
f 570/6/5 568/6/5 569/6/5
f 573/6/5 572/6/5 571/6/5
f 574/6/5 572/6/5 573/6/5
f 575/1/6 576/1/6 580/1/6
f 580/1/6 576/1/6 581/1/6
f 581/1/6 576/1/6 582/1/6
f 582/1/6 576/1/6 583/1/6
f 577/1/6 578/1/6 586/1/6
f 586/1/6 578/1/6 587/1/6
f 587/1/6 578/1/6 588/1/6
f 588/1/6 578/1/6 589/1/6
f 579/1/6 580/1/6 591/1/6
f 580/1/6 581/1/6 591/1/6
f 591/1/6 581/1/6 592/1/6
f 583/1/6 584/1/6 593/1/6
f 582/1/6 583/1/6 593/1/6
f 593/1/6 584/1/6 594/1/6
f 594/1/6 584/1/6 595/1/6
f 586/1/6 587/1/6 596/1/6
f 585/1/6 586/1/6 596/1/6
f 596/1/6 587/1/6 597/1/6
f 597/1/6 587/1/6 598/1/6
f 589/1/6 590/1/6 599/1/6
f 588/1/6 589/1/6 599/1/6
f 599/1/6 590/1/6 600/1/6
f 601/3/6 602/3/6 603/3/6
f 603/3/6 602/3/6 604/3/6
f 605/1/6 606/1/6 610/1/6
f 610/1/6 606/1/6 611/1/6
f 611/1/6 606/1/6 612/1/6
f 612/1/6 606/1/6 613/1/6
f 607/1/6 608/1/6 616/1/6
f 616/1/6 608/1/6 617/1/6
f 617/1/6 608/1/6 618/1/6
f 618/1/6 608/1/6 619/1/6
f 609/1/6 610/1/6 621/1/6
f 610/1/6 611/1/6 621/1/6
f 621/1/6 611/1/6 622/1/6
f 613/1/6 614/1/6 623/1/6
f 612/1/6 613/1/6 623/1/6
f 623/1/6 614/1/6 624/1/6
f 624/1/6 614/1/6 625/1/6
f 616/1/6 617/1/6 626/1/6
f 615/1/6 616/1/6 626/1/6
f 626/1/6 617/1/6 627/1/6
f 627/1/6 617/1/6 628/1/6
f 619/1/6 620/1/6 629/1/6
f 618/1/6 619/1/6 629/1/6
f 629/1/6 620/1/6 630/1/6
f 631/6/6 632/6/6 633/6/6
f 633/6/6 632/6/6 634/6/6
f 635/6/6 636/6/6 637/6/6
f 637/6/6 636/6/6 638/6/6
f 639/3/6 640/3/6 641/3/6
f 641/3/6 640/3/6 642/3/6
f 643/6/6 644/6/6 645/6/6
f 645/6/6 644/6/6 646/6/6
f 646/6/6 644/6/6 647/6/6
f 647/6/6 644/6/6 648/6/6
f 646/6/6 647/6/6 649/6/6
f 648/6/6 644/6/6 650/6/6
f 643/6/6 645/6/6 651/6/6
f 649/6/6 650/6/6 652/6/6
f 646/6/6 649/6/6 652/6/6
f 643/6/6 651/6/6 653/6/6
f 651/6/6 652/6/6 653/6/6
f 652/6/6 650/6/6 654/6/6
f 653/6/6 652/6/6 654/6/6
f 650/6/6 644/6/6 654/6/6
f 655/6/6 656/6/6 657/6/6
f 657/6/6 656/6/6 658/6/6
f 659/6/6 660/6/6 661/6/6
f 661/6/6 660/6/6 662/6/6
f 659/6/6 661/6/6 663/6/6
f 662/6/6 660/6/6 664/6/6
f 659/6/6 663/6/6 665/6/6
f 663/6/6 664/6/6 665/6/6
f 664/6/6 660/6/6 666/6/6
f 665/6/6 664/6/6 666/6/6
f 667/6/6 668/6/6 669/6/6
f 669/6/6 668/6/6 670/6/6
f 667/6/6 669/6/6 671/6/6
f 670/6/6 668/6/6 672/6/6
f 667/6/6 671/6/6 673/6/6
f 671/6/6 672/6/6 673/6/6
f 672/6/6 668/6/6 674/6/6
f 673/6/6 672/6/6 674/6/6
f 675/6/6 676/6/6 677/6/6
f 677/6/6 676/6/6 678/6/6
f 675/6/6 677/6/6 680/6/6
f 679/6/6 680/6/6 681/6/6
f 680/6/6 677/6/6 682/6/6
f 681/6/6 680/6/6 682/6/6
f 678/6/6 676/6/6 686/6/6
f 686/6/6 676/6/6 687/6/6
f 685/6/6 686/6/6 689/6/6
f 687/6/6 688/6/6 689/6/6
f 686/6/6 687/6/6 689/6/6
f 689/6/6 688/6/6 690/6/6
f 690/6/6 688/6/6 691/6/6
f 691/6/6 688/6/6 692/6/6
f 683/6/6 684/6/6 693/6/6
f 693/6/6 684/6/6 694/6/6
f 690/6/6 691/6/6 695/6/6
f 690/6/6 695/6/6 697/6/6
f 695/6/6 696/6/6 697/6/6
f 697/6/6 696/6/6 698/6/6
f 682/6/6 677/6/6 699/6/6
f 690/6/6 697/6/6 700/6/6
f 682/6/6 699/6/6 701/6/6
f 699/6/6 700/6/6 701/6/6
f 700/6/6 697/6/6 702/6/6
f 701/6/6 700/6/6 702/6/6
