# MagicaVoxel @ Ephtracy

# group
g house6-dark

# material
mtllib house6-dark.mtl
usemtl palette

# normals
vn -1 0 0
vn 1 0 0
vn 0 0 1
vn 0 0 -1
vn 0 -1 0
vn 0 1 0

# texcoords
vt 0.591797 0.5
vt 0.607422 0.5
vt 0.615234 0.5
vt 0.619141 0.5
vt 0.623047 0.5
vt 0.654297 0.5
vt 0.927734 0.5
vt 0.931641 0.5

# verts
v -21 0 -3
v -21 0 -5
v -21 0 -7
v -21 0 -9
v -21 10 -5
v -21 10 -7
v -21 12 -3
v -21 12 -4
v -21 13 -4
v -21 13 -7
v -21 40 -7
v -21 40 -9
v -20 0 13
v -20 0 11
v -20 0 10
v -20 0 9
v -20 0 8
v -20 0 7
v -20 36 13
v -20 36 11
v -20 36 10
v -20 36 9
v -20 36 8
v -20 36 7
v -19 0 11
v -19 0 10
v -19 0 9
v -19 0 8
v -19 0 7
v -19 0 -3
v -19 0 -5
v -19 0 -7
v -19 0 -9
v -19 0 -14
v -19 10 -5
v -19 10 -7
v -19 12 -3
v -19 12 -4
v -19 13 -4
v -19 13 -7
v -19 36 12
v -19 36 11
v -19 36 10
v -19 36 9
v -19 36 8
v -19 36 7
v -19 36 -7
v -19 36 -9
v -19 36 -14
v -19 40 12
v -19 40 -7
v -19 40 -9
v -19 40 -14
v -17 0 13
v -17 0 12
v -17 35 13
v -17 35 12
v -16 37 -2
v -16 37 -10
v -16 38 -2
v -16 38 -10
v -15 20 14
v -15 20 12
v -15 31 14
v -15 31 12
v -15 32 14
v -15 32 12
v -15 38 -3
v -15 38 -9
v -15 39 -3
v -15 39 -9
v -13 20 15
v -13 20 14
v -13 21 15
v -13 21 14
v -9 21 14
v -9 21 13
v -9 31 14
v -9 31 13
v -1 21 14
v -1 21 13
v -1 31 14
v -1 31 13
v 3 20 15
v 3 20 14
v 3 21 15
v 3 21 14
v 8 21 14
v 8 21 13
v 8 31 14
v 8 31 13
v 14 21 14
v 14 21 13
v 14 31 14
v 14 31 13
v 16 0 13
v 16 0 12
v 16 35 13
v 16 35 12
v 18 0 13
v 18 0 12
v 18 35 13
v 18 35 12
v 18 37 8
v 18 37 -13
v 18 40 8
v 18 40 -13
v 20 0 -0
v 20 0 -3
v 20 0 -4
v 20 0 -6
v 20 3 -4
v 20 3 -6
v 20 5 -0
v 20 5 -3
v -18 0 13
v -18 0 12
v -18 35 13
v -18 35 12
v -18 37 8
v -18 37 -13
v -18 40 8
v -18 40 -13
v -16 0 13
v -16 0 12
v -16 35 13
v -16 35 12
v -14 21 14
v -14 21 13
v -14 31 14
v -14 31 13
v -8 21 14
v -8 21 13
v -8 31 14
v -8 31 13
v -4 38 -3
v -4 38 -9
v -4 39 -3
v -4 39 -9
v -3 20 15
v -3 20 14
v -3 21 15
v -3 21 14
v -3 37 -2
v -3 37 -10
v -3 38 -2
v -3 38 -10
v 1 21 14
v 1 21 13
v 1 31 14
v 1 31 13
v 9 21 14
v 9 21 13
v 9 31 14
v 9 31 13
v 13 20 15
v 13 20 14
v 13 21 15
v 13 21 14
v 15 20 14
v 15 20 12
v 15 31 14
v 15 31 12
v 15 32 14
v 15 32 12
v 17 0 13
v 17 0 12
v 17 35 13
v 17 35 12
v 19 0 11
v 19 0 10
v 19 0 9
v 19 0 8
v 19 0 7
v 19 0 -11
v 19 0 -12
v 19 0 -14
v 19 3 -4
v 19 3 -6
v 19 5 -0
v 19 5 -3
v 19 5 -4
v 19 5 -6
v 19 7 -0
v 19 7 -3
v 19 23 -8
v 19 23 -11
v 19 24 -9
v 19 24 -12
v 19 35 11
v 19 35 10
v 19 35 9
v 19 35 8
v 19 36 12
v 19 36 7
v 19 36 -8
v 19 36 -9
v 19 36 -14
v 19 40 12
v 19 40 -8
v 19 40 -9
v 19 40 -14
v 20 0 13
v 20 0 11
v 20 0 10
v 20 0 9
v 20 0 8
v 20 0 7
v 20 0 -11
v 20 0 -12
v 20 23 -8
v 20 23 -11
v 20 24 -9
v 20 24 -12
v 20 35 11
v 20 35 10
v 20 35 9
v 20 35 8
v 20 36 13
v 20 36 7
v 20 40 -8
v 20 40 -9
v 21 0 -0
v 21 0 -3
v 21 0 -4
v 21 0 -6
v 21 5 -4
v 21 5 -6
v 21 7 -0
v 21 7 -3
v -13 20 15
v -13 21 15
v -3 20 15
v -3 21 15
v 3 20 15
v 3 21 15
v 13 20 15
v 13 21 15
v -15 20 14
v -15 31 14
v -15 32 14
v -14 21 14
v -14 31 14
v -13 20 14
v -13 21 14
v -9 21 14
v -9 31 14
v -8 21 14
v -8 31 14
v -3 20 14
v -3 21 14
v -1 20 14
v -1 21 14
v -1 31 14
v 1 20 14
v 1 21 14
v 1 31 14
v 3 20 14
v 3 21 14
v 8 21 14
v 8 31 14
v 9 21 14
v 9 31 14
v 13 20 14
v 13 21 14
v 14 21 14
v 14 31 14
v 15 20 14
v 15 31 14
v 15 32 14
v -20 0 13
v -20 36 13
v -18 0 13
v -18 35 13
v -17 0 13
v -17 35 13
v -16 0 13
v -16 35 13
v -14 21 13
v -14 31 13
v -9 21 13
v -9 31 13
v -8 21 13
v -8 31 13
v -3 21 13
v -3 31 13
v -1 21 13
v -1 31 13
v 1 21 13
v 1 31 13
v 3 21 13
v 3 31 13
v 8 21 13
v 8 31 13
v 9 21 13
v 9 31 13
v 14 21 13
v 14 31 13
v 16 0 13
v 16 35 13
v 17 0 13
v 17 35 13
v 18 0 13
v 18 35 13
v 20 0 13
v 20 36 13
v -19 36 12
v -19 40 12
v -18 0 12
v -18 35 12
v -17 0 12
v -17 35 12
v -16 0 12
v -16 35 12
v -15 20 12
v -15 31 12
v -15 32 12
v 15 20 12
v 15 31 12
v 15 32 12
v 16 0 12
v 16 35 12
v 17 0 12
v 17 35 12
v 18 0 12
v 18 35 12
v 19 36 12
v 19 40 12
v -20 0 10
v -20 36 10
v -19 0 10
v -19 36 10
v 19 0 10
v 19 35 10
v 20 0 10
v 20 35 10
v -20 0 8
v -20 36 8
v -19 0 8
v -19 36 8
v 19 0 8
v 19 35 8
v 20 0 8
v 20 35 8
v 19 5 -0
v 19 7 -0
v 20 0 -0
v 20 5 -0
v 21 0 -0
v 21 7 -0
v -16 37 -2
v -16 38 -2
v -3 37 -2
v -3 38 -2
v -21 0 -3
v -21 12 -3
v -19 0 -3
v -19 12 -3
v -15 38 -3
v -15 39 -3
v -4 38 -3
v -4 39 -3
v -21 12 -4
v -21 13 -4
v -19 12 -4
v -19 13 -4
v 19 3 -4
v 19 5 -4
v 20 0 -4
v 20 3 -4
v 21 0 -4
v 21 5 -4
v -21 0 -7
v -21 10 -7
v -21 13 -7
v -21 40 -7
v -19 0 -7
v -19 10 -7
v -19 13 -7
v -19 36 -7
v -19 40 -7
v 19 23 -8
v 19 36 -8
v 19 40 -8
v 20 23 -8
v 20 40 -8
v 19 0 -11
v 19 23 -11
v 20 0 -11
v 20 23 -11
v -18 37 -13
v -18 40 -13
v 18 37 -13
v 18 40 -13
v -20 0 11
v -20 36 11
v -19 0 11
v -19 36 11
v 19 0 11
v 19 35 11
v 20 0 11
v 20 35 11
v -20 0 9
v -20 36 9
v -19 0 9
v -19 36 9
v 19 0 9
v 19 35 9
v 20 0 9
v 20 35 9
v -18 37 8
v -18 40 8
v 18 37 8
v 18 40 8
v -20 0 7
v -20 36 7
v -19 0 7
v -19 36 7
v 19 0 7
v 19 36 7
v 20 0 7
v 20 36 7
v 19 5 -3
v 19 7 -3
v 20 0 -3
v 20 5 -3
v 21 0 -3
v 21 7 -3
v -21 0 -5
v -21 10 -5
v -19 0 -5
v -19 10 -5
v 19 3 -6
v 19 5 -6
v 20 0 -6
v 20 3 -6
v 21 0 -6
v 21 5 -6
v -21 0 -9
v -21 40 -9
v -19 0 -9
v -19 36 -9
v -19 40 -9
v -15 38 -9
v -15 39 -9
v -4 38 -9
v -4 39 -9
v 19 24 -9
v 19 36 -9
v 19 40 -9
v 20 24 -9
v 20 40 -9
v -16 37 -10
v -16 38 -10
v -3 37 -10
v -3 38 -10
v 19 0 -12
v 19 24 -12
v 20 0 -12
v 20 24 -12
v -19 0 -14
v -19 36 -14
v -19 40 -14
v -18 0 -14
v -18 36 -14
v 18 0 -14
v 18 36 -14
v 19 0 -14
v 19 36 -14
v 19 40 -14
v -20 0 13
v -18 0 13
v -17 0 13
v -16 0 13
v 16 0 13
v 17 0 13
v 18 0 13
v 20 0 13
v -19 0 12
v -18 0 12
v -17 0 12
v -16 0 12
v 16 0 12
v 17 0 12
v 18 0 12
v 19 0 12
v -20 0 11
v -19 0 11
v 19 0 11
v 20 0 11
v -20 0 10
v -19 0 10
v 19 0 10
v 20 0 10
v -20 0 9
v -19 0 9
v 19 0 9
v 20 0 9
v -20 0 8
v -19 0 8
v 19 0 8
v 20 0 8
v -20 0 7
v -19 0 7
v 19 0 7
v 20 0 7
v 20 0 -0
v 21 0 -0
v -21 0 -3
v -19 0 -3
v 20 0 -3
v 21 0 -3
v 20 0 -4
v 21 0 -4
v -21 0 -5
v -19 0 -5
v 20 0 -6
v 21 0 -6
v -21 0 -7
v -19 0 -7
v -21 0 -9
v -19 0 -9
v 19 0 -11
v 20 0 -11
v 19 0 -12
v 20 0 -12
v -18 0 -13
v 18 0 -13
v -19 0 -14
v -18 0 -14
v 18 0 -14
v 19 0 -14
v 19 3 -4
v 20 3 -4
v 19 3 -6
v 20 3 -6
v 19 5 -0
v 20 5 -0
v 19 5 -3
v 20 5 -3
v -21 10 -5
v -19 10 -5
v -21 10 -7
v -19 10 -7
v -13 20 15
v -3 20 15
v 3 20 15
v 13 20 15
v -15 20 14
v -13 20 14
v -3 20 14
v -1 20 14
v 1 20 14
v 3 20 14
v 13 20 14
v 15 20 14
v -1 20 13
v 1 20 13
v -15 20 12
v 15 20 12
v 19 23 -8
v 20 23 -8
v 19 23 -11
v 20 23 -11
v -14 31 14
v -9 31 14
v -8 31 14
v -1 31 14
v 1 31 14
v 8 31 14
v 9 31 14
v 14 31 14
v -14 31 13
v -9 31 13
v -8 31 13
v -3 31 13
v -1 31 13
v 1 31 13
v 3 31 13
v 8 31 13
v 9 31 13
v 14 31 13
v -18 35 13
v -17 35 13
v -16 35 13
v 16 35 13
v 17 35 13
v 18 35 13
v -18 35 12
v -17 35 12
v -16 35 12
v 16 35 12
v 17 35 12
v 18 35 12
v 19 35 11
v 20 35 11
v 19 35 10
v 20 35 10
v 19 35 9
v 20 35 9
v 19 35 8
v 20 35 8
v 19 5 -4
v 21 5 -4
v 19 5 -6
v 21 5 -6
v 19 7 -0
v 21 7 -0
v 19 7 -3
v 21 7 -3
v -21 12 -3
v -19 12 -3
v -21 12 -4
v -19 12 -4
v -21 13 -4
v -19 13 -4
v -21 13 -7
v -19 13 -7
v -13 21 15
v -3 21 15
v 3 21 15
v 13 21 15
v -14 21 14
v -13 21 14
v -9 21 14
v -8 21 14
v -3 21 14
v -1 21 14
v 1 21 14
v 3 21 14
v 8 21 14
v 9 21 14
v 13 21 14
v 14 21 14
v -14 21 13
v -9 21 13
v -8 21 13
v -3 21 13
v -1 21 13
v 1 21 13
v 3 21 13
v 8 21 13
v 9 21 13
v 14 21 13
v 19 24 -9
v 20 24 -9
v 19 24 -12
v 20 24 -12
v -15 32 14
v 15 32 14
v -15 32 12
v 15 32 12
v -20 36 13
v 20 36 13
v -19 36 12
v 19 36 12
v -20 36 11
v -19 36 11
v -20 36 10
v -19 36 10
v -20 36 9
v -19 36 9
v -20 36 8
v -19 36 8
v -20 36 7
v -19 36 7
v 19 36 7
v 20 36 7
v -18 37 8
v 18 37 8
v -16 37 -2
v -3 37 -2
v -16 37 -10
v -3 37 -10
v -18 37 -13
v 18 37 -13
v -16 38 -2
v -3 38 -2
v -15 38 -3
v -4 38 -3
v -15 38 -9
v -4 38 -9
v -16 38 -10
v -3 38 -10
v -15 39 -3
v -4 39 -3
v -13 39 -4
v -12 39 -4
v -7 39 -4
v -6 39 -4
v -13 39 -8
v -12 39 -8
v -7 39 -8
v -6 39 -8
v -15 39 -9
v -4 39 -9
v -19 40 12
v 19 40 12
v -18 40 8
v 18 40 8
v -21 40 -7
v -19 40 -7
v 19 40 -8
v 20 40 -8
v -21 40 -9
v -19 40 -9
v 19 40 -9
v 20 40 -9
v -18 40 -13
v 18 40 -13
v -19 40 -14
v 19 40 -14

# faces
f 5/7/1 2/7/1 1/7/1
f 6/7/1 4/7/1 3/7/1
f 7/7/1 5/7/1 1/7/1
f 7/7/1 6/7/1 5/7/1
f 8/7/1 6/7/1 7/7/1
f 9/7/1 6/7/1 8/7/1
f 10/7/1 4/7/1 6/7/1
f 10/7/1 6/7/1 9/7/1
f 11/7/1 4/7/1 10/7/1
f 12/7/1 4/7/1 11/7/1
f 19/6/1 14/6/1 13/6/1
f 20/6/1 14/6/1 19/6/1
f 21/6/1 16/6/1 15/6/1
f 22/6/1 16/6/1 21/6/1
f 23/6/1 18/6/1 17/6/1
f 24/6/1 18/6/1 23/6/1
f 35/5/1 32/5/1 31/5/1
f 36/5/1 32/5/1 35/5/1
f 37/5/1 30/5/1 29/5/1
f 39/5/1 38/5/1 37/5/1
f 42/5/1 26/5/1 25/5/1
f 43/5/1 26/5/1 42/5/1
f 44/5/1 28/5/1 27/5/1
f 45/5/1 28/5/1 44/5/1
f 46/5/1 40/5/1 39/5/1
f 46/5/1 37/5/1 29/5/1
f 46/5/1 39/5/1 37/5/1
f 47/5/1 40/5/1 46/5/1
f 48/5/1 34/5/1 33/5/1
f 49/5/1 34/5/1 48/5/1
f 50/7/1 45/7/1 44/7/1
f 50/7/1 43/7/1 42/7/1
f 50/7/1 47/7/1 46/7/1
f 50/7/1 46/7/1 45/7/1
f 50/7/1 44/7/1 43/7/1
f 50/7/1 42/7/1 41/7/1
f 51/7/1 47/7/1 50/7/1
f 52/7/1 49/7/1 48/7/1
f 53/7/1 49/7/1 52/7/1
f 56/6/1 55/6/1 54/6/1
f 57/6/1 55/6/1 56/6/1
f 60/7/1 59/7/1 58/7/1
f 61/7/1 59/7/1 60/7/1
f 64/3/1 63/3/1 62/3/1
f 65/3/1 63/3/1 64/3/1
f 66/4/1 65/4/1 64/4/1
f 67/4/1 65/4/1 66/4/1
f 70/7/1 69/7/1 68/7/1
f 71/7/1 69/7/1 70/7/1
f 74/3/1 73/3/1 72/3/1
f 75/3/1 73/3/1 74/3/1
f 78/3/1 77/3/1 76/3/1
f 79/3/1 77/3/1 78/3/1
f 82/5/1 81/5/1 80/5/1
f 83/5/1 81/5/1 82/5/1
f 86/3/1 85/3/1 84/3/1
f 87/3/1 85/3/1 86/3/1
f 90/3/1 89/3/1 88/3/1
f 91/3/1 89/3/1 90/3/1
f 94/3/1 93/3/1 92/3/1
f 95/3/1 93/3/1 94/3/1
f 98/6/1 97/6/1 96/6/1
f 99/6/1 97/6/1 98/6/1
f 102/6/1 101/6/1 100/6/1
f 103/6/1 101/6/1 102/6/1
f 106/7/1 105/7/1 104/7/1
f 107/7/1 105/7/1 106/7/1
f 112/7/1 111/7/1 110/7/1
f 113/7/1 111/7/1 112/7/1
f 114/7/1 109/7/1 108/7/1
f 115/7/1 109/7/1 114/7/1
f 116/6/2 117/6/2 118/6/2
f 118/6/2 117/6/2 119/6/2
f 120/7/2 121/7/2 122/7/2
f 122/7/2 121/7/2 123/7/2
f 124/6/2 125/6/2 126/6/2
f 126/6/2 125/6/2 127/6/2
f 128/3/2 129/3/2 130/3/2
f 130/3/2 129/3/2 131/3/2
f 132/3/2 133/3/2 134/3/2
f 134/3/2 133/3/2 135/3/2
f 136/7/2 137/7/2 138/7/2
f 138/7/2 137/7/2 139/7/2
f 140/3/2 141/3/2 142/3/2
f 142/3/2 141/3/2 143/3/2
f 144/7/2 145/7/2 146/7/2
f 146/7/2 145/7/2 147/7/2
f 148/5/2 149/5/2 150/5/2
f 150/5/2 149/5/2 151/5/2
f 152/3/2 153/3/2 154/3/2
f 154/3/2 153/3/2 155/3/2
f 156/3/2 157/3/2 158/3/2
f 158/3/2 157/3/2 159/3/2
f 160/3/2 161/3/2 162/3/2
f 162/3/2 161/3/2 163/3/2
f 162/4/2 163/4/2 164/4/2
f 164/4/2 163/4/2 165/4/2
f 166/6/2 167/6/2 168/6/2
f 168/6/2 167/6/2 169/6/2
f 174/5/2 175/5/2 178/5/2
f 178/5/2 175/5/2 179/5/2
f 174/5/2 178/5/2 180/5/2
f 180/5/2 178/5/2 181/5/2
f 181/5/2 178/5/2 182/5/2
f 179/5/2 175/5/2 183/5/2
f 174/5/2 180/5/2 184/5/2
f 181/5/2 182/5/2 185/5/2
f 182/5/2 183/5/2 185/5/2
f 183/5/2 175/5/2 186/5/2
f 184/5/2 185/5/2 186/5/2
f 185/5/2 183/5/2 186/5/2
f 186/5/2 175/5/2 187/5/2
f 176/5/2 177/5/2 189/5/2
f 170/5/2 171/5/2 190/5/2
f 190/5/2 171/5/2 191/5/2
f 172/5/2 173/5/2 192/5/2
f 192/5/2 173/5/2 193/5/2
f 184/5/2 186/5/2 195/5/2
f 174/5/2 184/5/2 195/5/2
f 195/5/2 186/5/2 196/5/2
f 188/5/2 189/5/2 197/5/2
f 189/5/2 177/5/2 198/5/2
f 197/5/2 189/5/2 198/5/2
f 195/7/2 196/7/2 199/7/2
f 194/7/2 195/7/2 199/7/2
f 199/7/2 196/7/2 200/7/2
f 197/7/2 198/7/2 201/7/2
f 201/7/2 198/7/2 202/7/2
f 209/7/2 210/7/2 212/7/2
f 211/7/2 212/7/2 213/7/2
f 212/7/2 210/7/2 214/7/2
f 213/7/2 212/7/2 214/7/2
f 203/6/2 204/6/2 215/6/2
f 205/6/2 206/6/2 216/6/2
f 216/6/2 206/6/2 217/6/2
f 207/6/2 208/6/2 218/6/2
f 203/6/2 215/6/2 219/6/2
f 217/6/2 218/6/2 219/6/2
f 216/6/2 217/6/2 219/6/2
f 215/6/2 216/6/2 219/6/2
f 218/6/2 208/6/2 220/6/2
f 219/6/2 218/6/2 220/6/2
f 211/7/2 213/7/2 221/7/2
f 221/7/2 213/7/2 222/7/2
f 225/7/2 226/7/2 227/7/2
f 227/7/2 226/7/2 228/7/2
f 223/7/2 224/7/2 229/7/2
f 229/7/2 224/7/2 230/7/2
f 233/3/3 232/3/3 231/3/3
f 234/3/3 232/3/3 233/3/3
f 237/3/3 236/3/3 235/3/3
f 238/3/3 236/3/3 237/3/3
f 242/3/3 240/3/3 239/3/3
f 243/4/3 241/4/3 240/4/3
f 243/3/3 240/3/3 242/3/3
f 244/3/3 242/3/3 239/3/3
f 245/3/3 242/3/3 244/3/3
f 247/4/3 241/4/3 243/4/3
f 248/3/3 247/3/3 246/3/3
f 249/4/3 241/4/3 247/4/3
f 249/3/3 247/3/3 248/3/3
f 252/3/3 251/3/3 250/3/3
f 253/3/3 251/3/3 252/3/3
f 254/4/3 241/4/3 249/4/3
f 255/5/3 253/5/3 252/5/3
f 255/5/3 254/5/3 253/5/3
f 256/5/3 254/5/3 255/5/3
f 257/4/3 241/4/3 254/4/3
f 257/5/3 254/5/3 256/5/3
f 258/3/3 256/3/3 255/3/3
f 259/3/3 256/3/3 258/3/3
f 261/4/3 241/4/3 257/4/3
f 262/3/3 261/3/3 260/3/3
f 263/4/3 241/4/3 261/4/3
f 263/3/3 261/3/3 262/3/3
f 266/3/3 265/3/3 264/3/3
f 267/4/3 241/4/3 263/4/3
f 268/3/3 266/3/3 264/3/3
f 268/3/3 267/3/3 266/3/3
f 269/4/3 241/4/3 267/4/3
f 269/3/3 267/3/3 268/3/3
f 270/4/3 241/4/3 269/4/3
f 273/6/3 272/6/3 271/6/3
f 274/6/3 272/6/3 273/6/3
f 276/6/3 272/6/3 274/6/3
f 277/6/3 276/6/3 275/6/3
f 278/6/3 272/6/3 276/6/3
f 278/6/3 276/6/3 277/6/3
f 281/1/3 280/1/3 279/1/3
f 282/1/3 280/1/3 281/1/3
f 285/1/3 284/1/3 283/1/3
f 286/1/3 284/1/3 285/1/3
f 287/3/3 286/3/3 285/3/3
f 288/3/3 286/3/3 287/3/3
f 291/3/3 290/3/3 289/3/3
f 292/3/3 290/3/3 291/3/3
f 293/1/3 292/1/3 291/1/3
f 294/1/3 292/1/3 293/1/3
f 297/1/3 296/1/3 295/1/3
f 298/1/3 296/1/3 297/1/3
f 300/6/3 272/6/3 278/6/3
f 301/6/3 300/6/3 299/6/3
f 302/6/3 272/6/3 300/6/3
f 302/6/3 300/6/3 301/6/3
f 304/6/3 272/6/3 302/6/3
f 305/6/3 304/6/3 303/6/3
f 306/6/3 272/6/3 304/6/3
f 306/6/3 304/6/3 305/6/3
f 311/2/3 310/2/3 309/2/3
f 312/2/3 310/2/3 311/2/3
f 315/2/3 314/2/3 313/2/3
f 316/2/3 314/2/3 315/2/3
f 317/2/3 314/2/3 316/2/3
f 318/2/3 315/2/3 313/2/3
f 320/2/3 314/2/3 317/2/3
f 321/2/3 319/2/3 318/2/3
f 321/2/3 320/2/3 319/2/3
f 321/2/3 318/2/3 313/2/3
f 322/2/3 314/2/3 320/2/3
f 322/2/3 320/2/3 321/2/3
f 325/2/3 324/2/3 323/2/3
f 326/2/3 324/2/3 325/2/3
f 327/7/3 308/7/3 307/7/3
f 328/7/3 308/7/3 327/7/3
f 331/6/3 330/6/3 329/6/3
f 332/6/3 330/6/3 331/6/3
f 335/6/3 334/6/3 333/6/3
f 336/6/3 334/6/3 335/6/3
f 339/6/3 338/6/3 337/6/3
f 340/6/3 338/6/3 339/6/3
f 343/6/3 342/6/3 341/6/3
f 344/6/3 342/6/3 343/6/3
f 348/7/3 346/7/3 345/7/3
f 349/7/3 348/7/3 347/7/3
f 350/7/3 346/7/3 348/7/3
f 350/7/3 348/7/3 349/7/3
f 353/7/3 352/7/3 351/7/3
f 354/7/3 352/7/3 353/7/3
f 357/7/3 356/7/3 355/7/3
f 358/7/3 356/7/3 357/7/3
f 361/7/3 360/7/3 359/7/3
f 362/7/3 360/7/3 361/7/3
f 365/7/3 364/7/3 363/7/3
f 366/7/3 364/7/3 365/7/3
f 370/7/3 368/7/3 367/7/3
f 371/7/3 370/7/3 369/7/3
f 372/7/3 368/7/3 370/7/3
f 372/7/3 370/7/3 371/7/3
f 377/7/3 374/7/3 373/7/3
f 378/7/3 374/7/3 377/7/3
f 379/7/3 376/7/3 375/7/3
f 380/7/3 376/7/3 379/7/3
f 381/7/3 376/7/3 380/7/3
f 385/7/3 383/7/3 382/7/3
f 385/7/3 384/7/3 383/7/3
f 386/7/3 384/7/3 385/7/3
f 389/7/3 388/7/3 387/7/3
f 390/7/3 388/7/3 389/7/3
f 393/7/3 392/7/3 391/7/3
f 394/7/3 392/7/3 393/7/3
f 395/6/4 396/6/4 397/6/4
f 397/6/4 396/6/4 398/6/4
f 399/6/4 400/6/4 401/6/4
f 401/6/4 400/6/4 402/6/4
f 403/6/4 404/6/4 405/6/4
f 405/6/4 404/6/4 406/6/4
f 407/6/4 408/6/4 409/6/4
f 409/6/4 408/6/4 410/6/4
f 411/7/4 412/7/4 413/7/4
f 413/7/4 412/7/4 414/7/4
f 415/6/4 416/6/4 417/6/4
f 417/6/4 416/6/4 418/6/4
f 419/6/4 420/6/4 421/6/4
f 421/6/4 420/6/4 422/6/4
f 423/7/4 424/7/4 426/7/4
f 425/7/4 426/7/4 427/7/4
f 426/7/4 424/7/4 428/7/4
f 427/7/4 426/7/4 428/7/4
f 429/7/4 430/7/4 431/7/4
f 431/7/4 430/7/4 432/7/4
f 433/7/4 434/7/4 436/7/4
f 435/7/4 436/7/4 437/7/4
f 436/7/4 434/7/4 438/7/4
f 437/7/4 436/7/4 438/7/4
f 439/7/4 440/7/4 441/7/4
f 441/7/4 440/7/4 442/7/4
f 442/7/4 440/7/4 443/7/4
f 444/7/4 445/7/4 446/7/4
f 446/7/4 445/7/4 447/7/4
f 448/7/4 449/7/4 451/7/4
f 449/7/4 450/7/4 451/7/4
f 451/7/4 450/7/4 452/7/4
f 453/7/4 454/7/4 455/7/4
f 455/7/4 454/7/4 456/7/4
f 457/7/4 458/7/4 459/7/4
f 459/7/4 458/7/4 460/7/4
f 461/5/4 462/5/4 464/5/4
f 462/7/4 463/7/4 465/7/4
f 464/5/4 462/5/4 465/5/4
f 464/4/4 465/4/4 466/4/4
f 465/7/4 463/7/4 467/7/4
f 466/4/4 465/4/4 467/4/4
f 466/5/4 467/5/4 468/5/4
f 467/7/4 463/7/4 469/7/4
f 468/5/4 467/5/4 469/5/4
f 469/7/4 463/7/4 470/7/4
f 479/6/5 472/6/5 471/6/5
f 480/6/5 472/6/5 479/6/5
f 481/6/5 474/6/5 473/6/5
f 482/6/5 474/6/5 481/6/5
f 483/6/5 476/6/5 475/6/5
f 484/6/5 476/6/5 483/6/5
f 485/6/5 478/6/5 477/6/5
f 486/6/5 478/6/5 485/6/5
f 487/6/5 479/6/5 471/6/5
f 488/5/5 480/5/5 479/5/5
f 488/6/5 479/6/5 487/6/5
f 489/6/5 478/6/5 486/6/5
f 489/5/5 486/5/5 485/5/5
f 490/6/5 478/6/5 489/6/5
f 492/5/5 480/5/5 488/5/5
f 493/5/5 489/5/5 485/5/5
f 495/6/5 492/6/5 491/6/5
f 496/5/5 480/5/5 492/5/5
f 496/6/5 492/6/5 495/6/5
f 497/6/5 494/6/5 493/6/5
f 497/5/5 493/5/5 485/5/5
f 498/6/5 494/6/5 497/6/5
f 500/5/5 480/5/5 496/5/5
f 501/5/5 497/5/5 485/5/5
f 503/6/5 500/6/5 499/6/5
f 504/5/5 480/5/5 500/5/5
f 504/6/5 500/6/5 503/6/5
f 505/6/5 502/6/5 501/6/5
f 505/5/5 501/5/5 485/5/5
f 506/6/5 502/6/5 505/6/5
f 510/5/5 480/5/5 504/5/5
f 511/7/5 508/7/5 507/7/5
f 512/7/5 508/7/5 511/7/5
f 515/7/5 510/7/5 509/7/5
f 516/5/5 480/5/5 510/5/5
f 516/7/5 510/7/5 515/7/5
f 517/7/5 514/7/5 513/7/5
f 518/7/5 514/7/5 517/7/5
f 520/5/5 480/5/5 516/5/5
f 521/7/5 520/7/5 519/7/5
f 522/5/5 480/5/5 520/5/5
f 522/7/5 520/7/5 521/7/5
f 523/5/5 505/5/5 485/5/5
f 525/5/5 523/5/5 485/5/5
f 525/7/5 524/7/5 523/7/5
f 526/7/5 524/7/5 525/7/5
f 527/2/5 484/2/5 483/2/5
f 527/2/5 482/2/5 481/2/5
f 527/2/5 481/2/5 480/2/5
f 527/2/5 483/2/5 482/2/5
f 527/2/5 485/2/5 484/2/5
f 527/5/5 480/5/5 522/5/5
f 528/5/5 525/5/5 485/5/5
f 528/2/5 485/2/5 527/2/5
f 529/5/5 527/5/5 522/5/5
f 530/4/5 528/4/5 527/4/5
f 530/5/5 527/5/5 529/5/5
f 531/5/5 525/5/5 528/5/5
f 531/4/5 528/4/5 530/4/5
f 532/5/5 525/5/5 531/5/5
f 535/7/5 534/7/5 533/7/5
f 536/7/5 534/7/5 535/7/5
f 539/7/5 538/7/5 537/7/5
f 540/7/5 538/7/5 539/7/5
f 543/7/5 542/7/5 541/7/5
f 544/7/5 542/7/5 543/7/5
f 550/3/5 546/3/5 545/3/5
f 551/3/5 546/3/5 550/3/5
f 554/3/5 548/3/5 547/3/5
f 555/3/5 548/3/5 554/3/5
f 557/5/5 553/5/5 552/5/5
f 557/3/5 550/3/5 549/3/5
f 557/3/5 551/3/5 550/3/5
f 557/3/5 552/3/5 551/3/5
f 558/3/5 556/3/5 555/3/5
f 558/5/5 553/5/5 557/5/5
f 558/3/5 555/3/5 554/3/5
f 558/3/5 554/3/5 553/3/5
f 559/3/5 557/3/5 549/3/5
f 559/3/5 558/3/5 557/3/5
f 560/3/5 556/3/5 558/3/5
f 560/3/5 558/3/5 559/3/5
f 563/7/5 562/7/5 561/7/5
f 564/7/5 562/7/5 563/7/5
f 573/4/5 566/4/5 565/4/5
f 574/4/5 566/4/5 573/4/5
f 575/4/5 568/4/5 567/4/5
f 576/4/5 568/4/5 575/4/5
f 577/4/5 568/4/5 576/4/5
f 578/4/5 570/4/5 569/4/5
f 579/4/5 570/4/5 578/4/5
f 580/4/5 570/4/5 579/4/5
f 581/4/5 572/4/5 571/4/5
f 582/4/5 572/4/5 581/4/5
f 589/6/5 584/6/5 583/6/5
f 590/6/5 584/6/5 589/6/5
f 591/6/5 586/6/5 585/6/5
f 592/6/5 586/6/5 591/6/5
f 593/6/5 588/6/5 587/6/5
f 594/6/5 588/6/5 593/6/5
f 597/6/5 596/6/5 595/6/5
f 598/6/5 596/6/5 597/6/5
f 601/6/5 600/6/5 599/6/5
f 602/6/5 600/6/5 601/6/5
f 603/7/6 604/7/6 605/7/6
f 605/7/6 604/7/6 606/7/6
f 607/7/6 608/7/6 609/7/6
f 609/7/6 608/7/6 610/7/6
f 611/7/6 612/7/6 613/7/6
f 613/7/6 612/7/6 614/7/6
f 615/7/6 616/7/6 617/7/6
f 617/7/6 616/7/6 618/7/6
f 619/3/6 620/3/6 624/3/6
f 624/3/6 620/3/6 625/3/6
f 625/3/6 620/3/6 626/3/6
f 626/3/6 620/3/6 627/3/6
f 621/3/6 622/3/6 630/3/6
f 630/3/6 622/3/6 631/3/6
f 631/3/6 622/3/6 632/3/6
f 632/3/6 622/3/6 633/3/6
f 623/3/6 624/3/6 635/3/6
f 624/3/6 625/3/6 635/3/6
f 635/3/6 625/3/6 636/3/6
f 627/3/6 628/3/6 637/3/6
f 626/3/6 627/3/6 637/3/6
f 637/3/6 628/3/6 638/3/6
f 638/3/6 628/3/6 639/3/6
f 630/3/6 631/3/6 640/3/6
f 629/3/6 630/3/6 640/3/6
f 640/3/6 631/3/6 641/3/6
f 641/3/6 631/3/6 642/3/6
f 633/3/6 634/3/6 643/3/6
f 632/3/6 633/3/6 643/3/6
f 643/3/6 634/3/6 644/3/6
f 645/7/6 646/7/6 647/7/6
f 647/7/6 646/7/6 648/7/6
f 649/4/6 650/4/6 651/4/6
f 651/4/6 650/4/6 652/4/6
f 653/6/6 654/6/6 655/6/6
f 655/6/6 654/6/6 656/6/6
f 653/6/6 655/6/6 657/6/6
f 657/6/6 655/6/6 658/6/6
f 659/6/6 660/6/6 661/6/6
f 661/6/6 660/6/6 662/6/6
f 663/6/6 664/6/6 665/6/6
f 665/6/6 664/6/6 666/6/6
f 656/6/6 654/6/6 667/6/6
f 667/6/6 654/6/6 668/6/6
f 669/7/6 670/7/6 671/7/6
f 671/7/6 670/7/6 672/7/6
f 669/7/6 671/7/6 673/7/6
f 672/7/6 670/7/6 674/7/6
f 669/7/6 673/7/6 675/7/6
f 673/7/6 674/7/6 675/7/6
f 674/7/6 670/7/6 676/7/6
f 675/7/6 674/7/6 676/7/6
f 677/7/6 678/7/6 679/7/6
f 679/7/6 678/7/6 680/7/6
f 677/7/6 679/7/6 681/7/6
f 680/7/6 678/7/6 682/7/6
f 677/7/6 681/7/6 683/7/6
f 681/7/6 682/7/6 683/7/6
f 682/7/6 678/7/6 684/7/6
f 683/7/6 682/7/6 684/7/6
f 685/7/6 686/7/6 687/7/6
f 687/7/6 686/7/6 688/7/6
f 688/7/6 686/7/6 689/7/6
f 689/7/6 686/7/6 690/7/6
f 685/7/6 687/7/6 691/7/6
f 687/8/6 688/8/6 691/8/6
f 688/7/6 689/7/6 692/7/6
f 691/8/6 688/8/6 692/8/6
f 689/8/6 690/8/6 693/8/6
f 692/7/6 689/7/6 693/7/6
f 690/7/6 686/7/6 694/7/6
f 693/8/6 690/8/6 694/8/6
f 692/7/6 693/7/6 695/7/6
f 691/7/6 692/7/6 695/7/6
f 693/7/6 694/7/6 695/7/6
f 685/7/6 691/7/6 695/7/6
f 694/7/6 686/7/6 696/7/6
f 695/7/6 694/7/6 696/7/6
f 697/7/6 698/7/6 699/7/6
f 699/7/6 698/7/6 700/7/6
f 697/7/6 699/7/6 702/7/6
f 700/7/6 698/7/6 703/7/6
f 701/7/6 702/7/6 705/7/6
f 702/7/6 699/7/6 706/7/6
f 705/7/6 702/7/6 706/7/6
f 703/7/6 704/7/6 707/7/6
f 700/7/6 703/7/6 707/7/6
f 707/7/6 704/7/6 708/7/6
f 706/7/6 699/7/6 709/7/6
f 700/7/6 707/7/6 710/7/6
f 706/7/6 709/7/6 711/7/6
f 709/7/6 710/7/6 711/7/6
f 710/7/6 707/7/6 712/7/6
f 711/7/6 710/7/6 712/7/6
