# MagicaVoxel @ Ephtracy

# group
g house4

# material
mtllib house4.mtl
usemtl palette

# normals
vn -1 0 0
vn 1 0 0
vn 0 0 1
vn 0 0 -1
vn 0 -1 0
vn 0 1 0

# texcoords
vt 0.501953 0.5
vt 0.525391 0.5
vt 0.529297 0.5
vt 0.677734 0.5
vt 0.748047 0.5
vt 0.896484 0.5

# verts
v -21 0 -6
v -21 0 -7
v -21 21 -7
v -21 21 -14
v -21 22 -6
v -21 22 -14
v -20 13 13
v -20 13 -6
v -20 13 -7
v -20 13 -14
v -20 14 13
v -20 14 -6
v -20 14 -7
v -20 14 -14
v -20 19 13
v -20 19 -6
v -20 19 -7
v -20 19 -14
v -20 20 13
v -20 20 -6
v -20 20 -7
v -20 20 -14
v -19 0 13
v -19 0 -13
v -19 0 -14
v -19 2 13
v -19 2 12
v -19 13 12
v -19 13 -13
v -19 13 -14
v -19 13 -15
v -19 14 12
v -19 14 -13
v -19 14 -14
v -19 14 -15
v -19 19 12
v -19 19 -13
v -19 19 -14
v -19 20 12
v -19 20 -13
v -19 20 -14
v -19 21 -6
v -19 21 -13
v -19 21 -14
v -19 22 -6
v -19 22 -13
v -19 22 -14
v -19 44 12
v -19 44 -13
v -19 44 -14
v -19 48 12
v -19 48 -14
v -15 28 14
v -15 28 12
v -15 40 14
v -15 40 12
v -13 28 15
v -13 28 14
v -13 29 15
v -13 29 14
v -9 29 14
v -9 29 13
v -9 39 14
v -9 39 13
v -6 0 14
v -6 0 13
v -6 2 13
v -6 2 12
v -6 13 13
v -6 13 12
v -6 14 14
v -6 14 13
v -2 7 14
v -2 7 13
v -2 8 14
v -2 8 13
v -1 29 14
v -1 29 13
v -1 39 14
v -1 39 13
v 1 7 14
v 1 7 13
v 1 8 14
v 1 8 13
v 1 45 -7
v 1 45 -11
v 1 46 -7
v 1 46 -11
v 3 28 15
v 3 28 14
v 3 29 15
v 3 29 14
v 5 0 14
v 5 0 13
v 5 1 13
v 5 13 14
v 5 13 13
v 6 45 -7
v 6 45 -11
v 6 46 -7
v 6 46 -11
v 8 29 14
v 8 29 13
v 8 39 14
v 8 39 13
v 11 45 -7
v 11 45 -11
v 11 46 -7
v 11 46 -11
v 14 29 14
v 14 29 13
v 14 39 14
v 14 39 13
v 18 2 13
v 18 2 12
v 18 13 13
v 18 13 12
v 18 45 8
v 18 45 -13
v 18 48 8
v 18 48 -13
v -20 0 -6
v -20 0 -7
v -20 13 -6
v -20 13 -7
v -20 14 -6
v -20 14 -7
v -20 19 -6
v -20 19 -7
v -20 20 -6
v -20 20 -7
v -20 21 -6
v -20 21 -7
v -18 45 8
v -18 45 -13
v -18 48 8
v -18 48 -13
v -14 29 14
v -14 29 13
v -14 39 14
v -14 39 13
v -8 29 14
v -8 29 13
v -8 39 14
v -8 39 13
v -5 0 14
v -5 0 13
v -5 1 13
v -5 13 14
v -5 13 13
v -3 28 15
v -3 28 14
v -3 29 15
v -3 29 14
v -1 7 14
v -1 7 13
v -1 8 14
v -1 8 13
v 1 29 14
v 1 29 13
v 1 39 14
v 1 39 13
v 2 7 14
v 2 7 13
v 2 8 14
v 2 8 13
v 5 45 -7
v 5 45 -11
v 5 46 -7
v 5 46 -11
v 6 0 14
v 6 0 13
v 6 2 13
v 6 2 12
v 6 13 13
v 6 13 12
v 6 14 14
v 6 14 13
v 9 29 14
v 9 29 13
v 9 39 14
v 9 39 13
v 10 45 -7
v 10 45 -11
v 10 46 -7
v 10 46 -11
v 13 28 15
v 13 28 14
v 13 29 15
v 13 29 14
v 15 28 14
v 15 28 12
v 15 40 14
v 15 40 12
v 15 45 -7
v 15 45 -11
v 15 46 -7
v 15 46 -11
v 19 0 13
v 19 0 -14
v 19 13 13
v 19 13 -14
v 19 14 12
v 19 14 -5
v 19 14 -6
v 19 14 -8
v 19 14 -9
v 19 14 -14
v 19 16 -4
v 19 16 -5
v 19 16 -6
v 19 16 -8
v 19 16 -9
v 19 16 -10
v 19 19 12
v 19 19 -4
v 19 19 -10
v 19 19 -14
v 19 20 12
v 19 20 -4
v 19 20 -10
v 19 20 -14
v 19 24 -4
v 19 24 -5
v 19 24 -6
v 19 24 -8
v 19 24 -9
v 19 24 -10
v 19 44 12
v 19 44 -5
v 19 44 -6
v 19 44 -8
v 19 44 -9
v 19 44 -14
v 19 46 -8
v 19 46 -9
v 19 48 12
v 19 48 -14
v 20 13 13
v 20 13 -15
v 20 14 13
v 20 14 -5
v 20 14 -6
v 20 14 -8
v 20 14 -9
v 20 14 -15
v 20 16 -4
v 20 16 -5
v 20 16 -6
v 20 16 -8
v 20 16 -9
v 20 16 -10
v 20 19 13
v 20 19 -4
v 20 19 -10
v 20 19 -14
v 20 20 13
v 20 20 -4
v 20 20 -10
v 20 20 -14
v 20 24 -4
v 20 24 -5
v 20 24 -6
v 20 24 -8
v 20 24 -9
v 20 24 -10
v 20 44 -5
v 20 44 -6
v 20 46 -8
v 20 46 -9
v -13 28 15
v -13 29 15
v -3 28 15
v -3 29 15
v 3 28 15
v 3 29 15
v 13 28 15
v 13 29 15
v -15 28 14
v -15 40 14
v -14 29 14
v -14 39 14
v -13 28 14
v -13 29 14
v -9 29 14
v -9 39 14
v -8 29 14
v -8 39 14
v -6 0 14
v -6 14 14
v -5 0 14
v -5 13 14
v -3 28 14
v -3 29 14
v -2 7 14
v -2 8 14
v -1 7 14
v -1 8 14
v -1 28 14
v -1 29 14
v -1 39 14
v 1 7 14
v 1 8 14
v 1 28 14
v 1 29 14
v 1 39 14
v 2 7 14
v 2 8 14
v 3 28 14
v 3 29 14
v 5 0 14
v 5 13 14
v 6 0 14
v 6 14 14
v 8 29 14
v 8 39 14
v 9 29 14
v 9 39 14
v 13 28 14
v 13 29 14
v 14 29 14
v 14 39 14
v 15 28 14
v 15 40 14
v -20 13 13
v -20 14 13
v -20 19 13
v -20 20 13
v -19 0 13
v -19 2 13
v -14 29 13
v -14 39 13
v -9 29 13
v -9 39 13
v -8 29 13
v -8 39 13
v -6 0 13
v -6 2 13
v -6 13 13
v -6 14 13
v -5 0 13
v -5 1 13
v -5 13 13
v -3 29 13
v -3 39 13
v -2 7 13
v -2 8 13
v -1 1 13
v -1 7 13
v -1 8 13
v -1 13 13
v -1 29 13
v -1 39 13
v 1 1 13
v 1 7 13
v 1 8 13
v 1 13 13
v 1 29 13
v 1 39 13
v 2 7 13
v 2 8 13
v 3 29 13
v 3 39 13
v 5 0 13
v 5 1 13
v 5 13 13
v 6 0 13
v 6 2 13
v 6 13 13
v 6 14 13
v 8 29 13
v 8 39 13
v 9 29 13
v 9 39 13
v 14 29 13
v 14 39 13
v 18 2 13
v 18 13 13
v 19 0 13
v 19 13 13
v 20 13 13
v 20 14 13
v 20 19 13
v 20 20 13
v -19 2 12
v -19 13 12
v -19 14 12
v -19 19 12
v -19 20 12
v -19 44 12
v -19 48 12
v -18 2 12
v -18 13 12
v -18 14 12
v -18 19 12
v -18 20 12
v -18 44 12
v -15 28 12
v -15 40 12
v -6 2 12
v -6 13 12
v 6 2 12
v 6 13 12
v 15 28 12
v 15 40 12
v 18 2 12
v 18 13 12
v 18 14 12
v 18 19 12
v 18 20 12
v 18 44 12
v 19 14 12
v 19 19 12
v 19 20 12
v 19 44 12
v 19 48 12
v 19 16 -4
v 19 19 -4
v 19 20 -4
v 19 24 -4
v 20 16 -4
v 20 19 -4
v 20 20 -4
v 20 24 -4
v 19 14 -5
v 19 16 -5
v 19 24 -5
v 19 44 -5
v 20 14 -5
v 20 16 -5
v 20 24 -5
v 20 44 -5
v -21 0 -6
v -21 22 -6
v -20 0 -6
v -20 13 -6
v -20 14 -6
v -20 19 -6
v -20 20 -6
v -20 21 -6
v -19 21 -6
v -19 22 -6
v 1 45 -7
v 1 46 -7
v 5 45 -7
v 5 46 -7
v 6 45 -7
v 6 46 -7
v 10 45 -7
v 10 46 -7
v 11 45 -7
v 11 46 -7
v 15 45 -7
v 15 46 -7
v 19 14 -8
v 19 16 -8
v 19 24 -8
v 19 44 -8
v 19 46 -8
v 20 14 -8
v 20 16 -8
v 20 24 -8
v 20 46 -8
v -18 45 -13
v -18 48 -13
v 18 45 -13
v 18 48 -13
v -18 45 8
v -18 48 8
v 18 45 8
v 18 48 8
v 19 14 -6
v 19 16 -6
v 19 24 -6
v 19 44 -6
v 20 14 -6
v 20 16 -6
v 20 24 -6
v 20 44 -6
v -21 0 -7
v -21 21 -7
v -20 0 -7
v -20 13 -7
v -20 14 -7
v -20 19 -7
v -20 20 -7
v -20 21 -7
v 19 14 -9
v 19 16 -9
v 19 24 -9
v 19 44 -9
v 19 46 -9
v 20 14 -9
v 20 16 -9
v 20 24 -9
v 20 46 -9
v 19 16 -10
v 19 19 -10
v 19 20 -10
v 19 24 -10
v 20 16 -10
v 20 19 -10
v 20 20 -10
v 20 24 -10
v 1 45 -11
v 1 46 -11
v 5 45 -11
v 5 46 -11
v 6 45 -11
v 6 46 -11
v 10 45 -11
v 10 46 -11
v 11 45 -11
v 11 46 -11
v 15 45 -11
v 15 46 -11
v -21 21 -14
v -21 22 -14
v -20 13 -14
v -20 14 -14
v -20 19 -14
v -20 20 -14
v -19 0 -14
v -19 13 -14
v -19 14 -14
v -19 19 -14
v -19 20 -14
v -19 21 -14
v -19 22 -14
v -19 44 -14
v -19 48 -14
v 18 0 -14
v 18 13 -14
v 18 14 -14
v 18 44 -14
v 19 0 -14
v 19 13 -14
v 19 14 -14
v 19 19 -14
v 19 20 -14
v 19 44 -14
v 19 48 -14
v 20 19 -14
v 20 20 -14
v -19 13 -15
v -19 14 -15
v 20 13 -15
v 20 14 -15
v -6 0 14
v -5 0 14
v 5 0 14
v 6 0 14
v -19 0 13
v -6 0 13
v -5 0 13
v 5 0 13
v 6 0 13
v 19 0 13
v -18 0 12
v 18 0 12
v -21 0 -6
v -20 0 -6
v -21 0 -7
v -20 0 -7
v -19 0 -13
v -18 0 -13
v 18 0 -13
v -19 0 -14
v 18 0 -14
v 19 0 -14
v -2 7 14
v -1 7 14
v 1 7 14
v 2 7 14
v -2 7 13
v -1 7 13
v 1 7 13
v 2 7 13
v -5 13 14
v 5 13 14
v -20 13 13
v -6 13 13
v -5 13 13
v -1 13 13
v 1 13 13
v 5 13 13
v 6 13 13
v 18 13 13
v 19 13 13
v 20 13 13
v -19 13 12
v -18 13 12
v -6 13 12
v 6 13 12
v 18 13 12
v -20 13 -6
v -20 13 -7
v -19 13 -13
v -20 13 -14
v -19 13 -14
v 18 13 -14
v 19 13 -14
v -19 13 -15
v 20 13 -15
v 19 16 -4
v 20 16 -4
v 19 16 -5
v 20 16 -5
v 19 16 -6
v 20 16 -6
v 19 16 -8
v 20 16 -8
v 19 16 -9
v 20 16 -9
v 19 16 -10
v 20 16 -10
v -20 19 13
v 20 19 13
v -19 19 12
v -18 19 12
v 18 19 12
v 19 19 12
v 19 19 -4
v 20 19 -4
v -20 19 -6
v -20 19 -7
v 19 19 -10
v 20 19 -10
v -19 19 -13
v -20 19 -14
v -19 19 -14
v 19 19 -14
v 20 19 -14
v -20 21 -6
v -19 21 -6
v -21 21 -7
v -20 21 -7
v -19 21 -13
v -21 21 -14
v -19 21 -14
v -13 28 15
v -3 28 15
v 3 28 15
v 13 28 15
v -15 28 14
v -13 28 14
v -3 28 14
v -1 28 14
v 1 28 14
v 3 28 14
v 13 28 14
v 15 28 14
v -1 28 13
v 1 28 13
v -15 28 12
v 15 28 12
v -14 39 14
v -9 39 14
v -8 39 14
v -1 39 14
v 1 39 14
v 8 39 14
v 9 39 14
v 14 39 14
v -14 39 13
v -9 39 13
v -8 39 13
v -3 39 13
v -1 39 13
v 1 39 13
v 3 39 13
v 8 39 13
v 9 39 13
v 14 39 13
v -19 2 13
v -6 2 13
v 6 2 13
v 18 2 13
v -19 2 12
v -18 2 12
v -6 2 12
v 6 2 12
v 18 2 12
v -2 8 14
v -1 8 14
v 1 8 14
v 2 8 14
v -2 8 13
v -1 8 13
v 1 8 13
v 2 8 13
v -6 14 14
v 6 14 14
v -20 14 13
v -6 14 13
v 6 14 13
v 20 14 13
v -19 14 12
v -18 14 12
v 18 14 12
v 19 14 12
v 19 14 -5
v 20 14 -5
v -20 14 -6
v 19 14 -6
v 20 14 -6
v -20 14 -7
v 19 14 -8
v 20 14 -8
v 19 14 -9
v 20 14 -9
v -19 14 -13
v -20 14 -14
v -19 14 -14
v 18 14 -14
v 19 14 -14
v -19 14 -15
v 20 14 -15
v -20 20 13
v 20 20 13
v -19 20 12
v -18 20 12
v 18 20 12
v 19 20 12
v 19 20 -4
v 20 20 -4
v -20 20 -6
v -20 20 -7
v 19 20 -10
v 20 20 -10
v -19 20 -13
v -20 20 -14
v -19 20 -14
v 19 20 -14
v 20 20 -14
v -21 22 -6
v -19 22 -6
v -19 22 -13
v -21 22 -14
v -19 22 -14
v 19 24 -4
v 20 24 -4
v 19 24 -5
v 20 24 -5
v 19 24 -6
v 20 24 -6
v 19 24 -8
v 20 24 -8
v 19 24 -9
v 20 24 -9
v 19 24 -10
v 20 24 -10
v -13 29 15
v -3 29 15
v 3 29 15
v 13 29 15
v -14 29 14
v -13 29 14
v -9 29 14
v -8 29 14
v -3 29 14
v -1 29 14
v 1 29 14
v 3 29 14
v 8 29 14
v 9 29 14
v 13 29 14
v 14 29 14
v -14 29 13
v -9 29 13
v -8 29 13
v -3 29 13
v -1 29 13
v 1 29 13
v 3 29 13
v 8 29 13
v 9 29 13
v 14 29 13
v -15 40 14
v 15 40 14
v -15 40 12
v 15 40 12
v 19 44 -5
v 20 44 -5
v 19 44 -6
v 20 44 -6
v -18 45 8
v 18 45 8
v 1 45 -7
v 5 45 -7
v 6 45 -7
v 10 45 -7
v 11 45 -7
v 15 45 -7
v 1 45 -11
v 5 45 -11
v 6 45 -11
v 10 45 -11
v 11 45 -11
v 15 45 -11
v -18 45 -13
v 18 45 -13
v 1 46 -7
v 5 46 -7
v 6 46 -7
v 10 46 -7
v 11 46 -7
v 15 46 -7
v 19 46 -8
v 20 46 -8
v 19 46 -9
v 20 46 -9
v 1 46 -11
v 5 46 -11
v 6 46 -11
v 10 46 -11
v 11 46 -11
v 15 46 -11
v -19 48 12
v 19 48 12
v -18 48 8
v 18 48 8
v -18 48 -13
v 18 48 -13
v -19 48 -14
v 19 48 -14

# faces
f 3/6/1 2/6/1 1/6/1
f 5/6/1 3/6/1 1/6/1
f 5/6/1 4/6/1 3/6/1
f 6/6/1 4/6/1 5/6/1
f 11/2/1 8/2/1 7/2/1
f 12/2/1 8/2/1 11/2/1
f 13/2/1 10/2/1 9/2/1
f 14/2/1 10/2/1 13/2/1
f 19/2/1 16/2/1 15/2/1
f 20/2/1 16/2/1 19/2/1
f 21/2/1 18/2/1 17/2/1
f 22/2/1 18/2/1 21/2/1
f 26/2/1 24/2/1 23/2/1
f 27/2/1 24/2/1 26/2/1
f 28/2/1 24/2/1 27/2/1
f 29/3/1 25/3/1 24/3/1
f 29/2/1 24/2/1 28/2/1
f 30/3/1 25/3/1 29/3/1
f 34/2/1 31/2/1 30/2/1
f 35/2/1 31/2/1 34/2/1
f 36/2/1 33/2/1 32/2/1
f 37/3/1 34/3/1 33/3/1
f 37/2/1 33/2/1 36/2/1
f 38/3/1 34/3/1 37/3/1
f 42/2/1 40/2/1 39/2/1
f 43/3/1 41/3/1 40/3/1
f 43/2/1 40/2/1 42/2/1
f 44/3/1 41/3/1 43/3/1
f 45/2/1 42/2/1 39/2/1
f 48/2/1 45/2/1 39/2/1
f 48/2/1 46/2/1 45/2/1
f 49/3/1 47/3/1 46/3/1
f 49/2/1 46/2/1 48/2/1
f 50/3/1 47/3/1 49/3/1
f 51/6/1 49/6/1 48/6/1
f 51/6/1 50/6/1 49/6/1
f 52/6/1 50/6/1 51/6/1
f 55/4/1 54/4/1 53/4/1
f 56/4/1 54/4/1 55/4/1
f 59/4/1 58/4/1 57/4/1
f 60/4/1 58/4/1 59/4/1
f 63/4/1 62/4/1 61/4/1
f 64/4/1 62/4/1 63/4/1
f 67/2/1 66/2/1 65/2/1
f 69/2/1 67/2/1 65/2/1
f 69/2/1 68/2/1 67/2/1
f 70/2/1 68/2/1 69/2/1
f 71/2/1 69/2/1 65/2/1
f 72/2/1 69/2/1 71/2/1
f 75/2/1 74/2/1 73/2/1
f 76/2/1 74/2/1 75/2/1
f 79/2/1 78/2/1 77/2/1
f 80/2/1 78/2/1 79/2/1
f 83/2/1 82/2/1 81/2/1
f 84/2/1 82/2/1 83/2/1
f 87/6/1 86/6/1 85/6/1
f 88/6/1 86/6/1 87/6/1
f 91/4/1 90/4/1 89/4/1
f 92/4/1 90/4/1 91/4/1
f 95/2/1 94/2/1 93/2/1
f 96/2/1 95/2/1 93/2/1
f 97/2/1 95/2/1 96/2/1
f 100/6/1 99/6/1 98/6/1
f 101/6/1 99/6/1 100/6/1
f 104/4/1 103/4/1 102/4/1
f 105/4/1 103/4/1 104/4/1
f 108/6/1 107/6/1 106/6/1
f 109/6/1 107/6/1 108/6/1
f 112/4/1 111/4/1 110/4/1
f 113/4/1 111/4/1 112/4/1
f 116/2/1 115/2/1 114/2/1
f 117/2/1 115/2/1 116/2/1
f 120/6/1 119/6/1 118/6/1
f 121/6/1 119/6/1 120/6/1
f 122/6/2 123/6/2 124/6/2
f 124/6/2 123/6/2 125/6/2
f 126/6/2 127/6/2 128/6/2
f 128/6/2 127/6/2 129/6/2
f 130/6/2 131/6/2 132/6/2
f 132/6/2 131/6/2 133/6/2
f 134/6/2 135/6/2 136/6/2
f 136/6/2 135/6/2 137/6/2
f 138/4/2 139/4/2 140/4/2
f 140/4/2 139/4/2 141/4/2
f 142/4/2 143/4/2 144/4/2
f 144/4/2 143/4/2 145/4/2
f 146/2/2 147/2/2 148/2/2
f 146/2/2 148/2/2 149/2/2
f 149/2/2 148/2/2 150/2/2
f 151/4/2 152/4/2 153/4/2
f 153/4/2 152/4/2 154/4/2
f 155/2/2 156/2/2 157/2/2
f 157/2/2 156/2/2 158/2/2
f 159/2/2 160/2/2 161/2/2
f 161/2/2 160/2/2 162/2/2
f 163/2/2 164/2/2 165/2/2
f 165/2/2 164/2/2 166/2/2
f 167/6/2 168/6/2 169/6/2
f 169/6/2 168/6/2 170/6/2
f 171/2/2 172/2/2 173/2/2
f 171/2/2 173/2/2 175/2/2
f 173/2/2 174/2/2 175/2/2
f 175/2/2 174/2/2 176/2/2
f 171/2/2 175/2/2 177/2/2
f 177/2/2 175/2/2 178/2/2
f 179/4/2 180/4/2 181/4/2
f 181/4/2 180/4/2 182/4/2
f 183/6/2 184/6/2 185/6/2
f 185/6/2 184/6/2 186/6/2
f 187/4/2 188/4/2 189/4/2
f 189/4/2 188/4/2 190/4/2
f 191/4/2 192/4/2 193/4/2
f 193/4/2 192/4/2 194/4/2
f 195/6/2 196/6/2 197/6/2
f 197/6/2 196/6/2 198/6/2
f 199/2/2 200/2/2 201/2/2
f 201/2/2 200/2/2 202/2/2
f 203/2/2 204/2/2 209/2/2
f 209/2/2 204/2/2 210/2/2
f 205/2/2 206/2/2 211/2/2
f 211/2/2 206/2/2 212/2/2
f 207/2/2 208/2/2 213/2/2
f 213/2/2 208/2/2 214/2/2
f 203/2/2 209/2/2 215/2/2
f 215/2/2 209/2/2 216/2/2
f 214/2/2 208/2/2 217/2/2
f 217/2/2 208/2/2 218/2/2
f 219/2/2 220/2/2 223/2/2
f 221/2/2 222/2/2 228/2/2
f 219/2/2 223/2/2 229/2/2
f 223/2/2 224/2/2 229/2/2
f 229/2/2 224/2/2 230/2/2
f 225/2/2 226/2/2 231/2/2
f 231/2/2 226/2/2 232/2/2
f 227/2/2 228/2/2 233/2/2
f 228/2/2 222/2/2 234/2/2
f 233/2/2 228/2/2 234/2/2
f 229/6/2 230/6/2 235/6/2
f 231/6/2 232/6/2 235/6/2
f 230/6/2 231/6/2 235/6/2
f 233/6/2 234/6/2 236/6/2
f 229/6/2 235/6/2 237/6/2
f 235/6/2 236/6/2 237/6/2
f 236/6/2 234/6/2 238/6/2
f 237/6/2 236/6/2 238/6/2
f 239/2/2 240/2/2 241/2/2
f 241/2/2 240/2/2 242/2/2
f 242/2/2 240/2/2 243/2/2
f 243/2/2 240/2/2 244/2/2
f 244/2/2 240/2/2 245/2/2
f 245/2/2 240/2/2 246/2/2
f 242/6/2 243/6/2 248/6/2
f 248/6/2 243/6/2 249/6/2
f 244/6/2 245/6/2 250/6/2
f 250/6/2 245/6/2 251/6/2
f 248/6/2 249/6/2 254/6/2
f 251/6/2 252/6/2 254/6/2
f 250/6/2 251/6/2 254/6/2
f 249/6/2 250/6/2 254/6/2
f 247/6/2 248/6/2 254/6/2
f 254/6/2 252/6/2 255/6/2
f 253/2/2 254/2/2 257/2/2
f 254/6/2 255/6/2 258/6/2
f 257/2/2 254/2/2 258/2/2
f 255/2/2 256/2/2 259/2/2
f 258/6/2 255/6/2 259/6/2
f 259/2/2 256/2/2 260/2/2
f 258/6/2 259/6/2 261/6/2
f 261/6/2 259/6/2 262/6/2
f 262/6/2 259/6/2 263/6/2
f 263/6/2 259/6/2 264/6/2
f 264/6/2 259/6/2 265/6/2
f 265/6/2 259/6/2 266/6/2
f 262/6/2 263/6/2 267/6/2
f 267/6/2 263/6/2 268/6/2
f 264/6/2 265/6/2 269/6/2
f 269/6/2 265/6/2 270/6/2
f 273/4/3 272/4/3 271/4/3
f 274/4/3 272/4/3 273/4/3
f 277/4/3 276/4/3 275/4/3
f 278/4/3 276/4/3 277/4/3
f 281/4/3 280/4/3 279/4/3
f 282/4/3 280/4/3 281/4/3
f 283/4/3 281/4/3 279/4/3
f 284/4/3 281/4/3 283/4/3
f 286/4/3 280/4/3 282/4/3
f 287/4/3 286/4/3 285/4/3
f 288/4/3 280/4/3 286/4/3
f 288/4/3 286/4/3 287/4/3
f 291/2/3 290/2/3 289/2/3
f 292/2/3 290/2/3 291/2/3
f 297/2/3 296/2/3 295/2/3
f 298/2/3 296/2/3 297/2/3
f 299/4/3 294/4/3 293/4/3
f 300/4/3 294/4/3 299/4/3
f 301/4/3 280/4/3 288/4/3
f 304/2/3 300/2/3 299/2/3
f 304/2/3 301/2/3 300/2/3
f 305/2/3 301/2/3 304/2/3
f 306/4/3 280/4/3 301/4/3
f 306/2/3 301/2/3 305/2/3
f 307/2/3 303/2/3 302/2/3
f 308/2/3 303/2/3 307/2/3
f 309/4/3 305/4/3 304/4/3
f 310/4/3 305/4/3 309/4/3
f 312/2/3 290/2/3 292/2/3
f 313/2/3 312/2/3 311/2/3
f 314/2/3 290/2/3 312/2/3
f 314/2/3 312/2/3 313/2/3
f 316/4/3 280/4/3 306/4/3
f 317/4/3 316/4/3 315/4/3
f 318/4/3 280/4/3 316/4/3
f 318/4/3 316/4/3 317/4/3
f 321/4/3 320/4/3 319/4/3
f 322/4/3 280/4/3 318/4/3
f 323/4/3 321/4/3 319/4/3
f 323/4/3 322/4/3 321/4/3
f 324/4/3 280/4/3 322/4/3
f 324/4/3 322/4/3 323/4/3
f 333/5/3 332/5/3 331/5/3
f 334/5/3 332/5/3 333/5/3
f 337/2/3 330/2/3 329/2/3
f 338/2/3 330/2/3 337/2/3
f 339/2/3 326/2/3 325/2/3
f 340/2/3 326/2/3 339/2/3
f 344/5/3 336/5/3 335/5/3
f 345/5/3 336/5/3 344/5/3
f 346/4/3 343/4/3 342/4/3
f 347/4/3 343/4/3 346/4/3
f 348/2/3 342/2/3 341/2/3
f 348/4/3 346/4/3 342/4/3
f 349/4/3 346/4/3 348/4/3
f 350/4/3 343/4/3 347/4/3
f 351/4/3 343/4/3 350/4/3
f 352/4/3 345/4/3 344/4/3
f 353/4/3 345/4/3 352/4/3
f 354/2/3 349/2/3 348/2/3
f 354/2/3 351/2/3 350/2/3
f 354/2/3 348/2/3 341/2/3
f 354/2/3 350/2/3 349/2/3
f 355/2/3 351/2/3 354/2/3
f 356/2/3 351/2/3 355/2/3
f 357/2/3 351/2/3 356/2/3
f 360/4/3 355/4/3 354/4/3
f 361/4/3 357/4/3 356/4/3
f 362/4/3 359/4/3 358/4/3
f 363/4/3 359/4/3 362/4/3
f 364/2/3 354/2/3 341/2/3
f 365/4/3 361/4/3 360/4/3
f 365/2/3 354/2/3 364/2/3
f 365/4/3 360/4/3 354/4/3
f 366/4/3 357/4/3 361/4/3
f 366/4/3 361/4/3 365/4/3
f 371/5/3 363/5/3 362/5/3
f 372/5/3 363/5/3 371/5/3
f 375/5/3 374/5/3 373/5/3
f 376/5/3 374/5/3 375/5/3
f 377/2/3 368/2/3 367/2/3
f 378/2/3 370/2/3 369/2/3
f 379/2/3 377/2/3 367/2/3
f 379/2/3 378/2/3 377/2/3
f 380/2/3 370/2/3 378/2/3
f 380/2/3 378/2/3 379/2/3
f 381/2/3 370/2/3 380/2/3
f 382/2/3 370/2/3 381/2/3
f 383/2/3 328/2/3 327/2/3
f 384/2/3 328/2/3 383/2/3
f 392/2/3 386/2/3 385/2/3
f 393/2/3 386/2/3 392/2/3
f 394/2/3 388/2/3 387/2/3
f 395/2/3 388/2/3 394/2/3
f 396/2/3 390/2/3 389/2/3
f 397/6/3 391/6/3 390/6/3
f 397/2/3 390/2/3 396/2/3
f 398/1/3 397/1/3 396/1/3
f 399/1/3 397/1/3 398/1/3
f 400/1/3 393/1/3 392/1/3
f 401/1/3 393/1/3 400/1/3
f 404/1/3 398/1/3 396/1/3
f 405/1/3 397/1/3 399/1/3
f 406/1/3 403/1/3 402/1/3
f 407/1/3 403/1/3 406/1/3
f 408/1/3 395/1/3 394/1/3
f 409/1/3 395/1/3 408/1/3
f 410/1/3 404/1/3 396/1/3
f 410/1/3 405/1/3 404/1/3
f 411/6/3 391/6/3 397/6/3
f 411/1/3 405/1/3 410/1/3
f 411/1/3 397/1/3 405/1/3
f 412/2/3 409/2/3 408/2/3
f 413/2/3 409/2/3 412/2/3
f 414/2/3 411/2/3 410/2/3
f 415/6/3 391/6/3 411/6/3
f 415/2/3 411/2/3 414/2/3
f 416/6/3 391/6/3 415/6/3
f 421/6/3 418/6/3 417/6/3
f 422/6/3 418/6/3 421/6/3
f 423/6/3 420/6/3 419/6/3
f 424/6/3 420/6/3 423/6/3
f 429/6/3 426/6/3 425/6/3
f 430/6/3 426/6/3 429/6/3
f 431/6/3 428/6/3 427/6/3
f 432/6/3 428/6/3 431/6/3
f 435/6/3 434/6/3 433/6/3
f 436/6/3 434/6/3 435/6/3
f 437/6/3 434/6/3 436/6/3
f 438/6/3 434/6/3 437/6/3
f 439/6/3 434/6/3 438/6/3
f 440/6/3 434/6/3 439/6/3
f 441/6/3 434/6/3 440/6/3
f 442/6/3 434/6/3 441/6/3
f 445/6/3 444/6/3 443/6/3
f 446/6/3 444/6/3 445/6/3
f 449/6/3 448/6/3 447/6/3
f 450/6/3 448/6/3 449/6/3
f 453/6/3 452/6/3 451/6/3
f 454/6/3 452/6/3 453/6/3
f 460/6/3 456/6/3 455/6/3
f 461/6/3 456/6/3 460/6/3
f 462/6/3 459/6/3 458/6/3
f 462/6/3 458/6/3 457/6/3
f 463/6/3 459/6/3 462/6/3
f 466/6/3 465/6/3 464/6/3
f 467/6/3 465/6/3 466/6/3
f 468/6/4 469/6/4 470/6/4
f 470/6/4 469/6/4 471/6/4
f 472/6/4 473/6/4 476/6/4
f 476/6/4 473/6/4 477/6/4
f 474/6/4 475/6/4 478/6/4
f 478/6/4 475/6/4 479/6/4
f 480/6/4 481/6/4 482/6/4
f 482/6/4 481/6/4 483/6/4
f 483/6/4 481/6/4 484/6/4
f 484/6/4 481/6/4 485/6/4
f 485/6/4 481/6/4 486/6/4
f 486/6/4 481/6/4 487/6/4
f 488/6/4 489/6/4 493/6/4
f 493/6/4 489/6/4 494/6/4
f 491/6/4 492/6/4 495/6/4
f 490/6/4 491/6/4 495/6/4
f 495/6/4 492/6/4 496/6/4
f 497/6/4 498/6/4 501/6/4
f 501/6/4 498/6/4 502/6/4
f 499/6/4 500/6/4 503/6/4
f 503/6/4 500/6/4 504/6/4
f 505/6/4 506/6/4 507/6/4
f 507/6/4 506/6/4 508/6/4
f 509/6/4 510/6/4 511/6/4
f 511/6/4 510/6/4 512/6/4
f 513/6/4 514/6/4 515/6/4
f 515/6/4 514/6/4 516/6/4
f 519/2/4 520/2/4 524/2/4
f 524/2/4 520/2/4 525/2/4
f 521/2/4 522/2/4 526/2/4
f 526/2/4 522/2/4 527/2/4
f 517/6/4 518/6/4 528/6/4
f 528/6/4 518/6/4 529/6/4
f 523/3/4 524/3/4 532/3/4
f 532/3/4 524/3/4 533/3/4
f 526/3/4 527/3/4 534/3/4
f 529/3/4 530/3/4 534/3/4
f 525/3/4 526/3/4 534/3/4
f 528/3/4 529/3/4 534/3/4
f 527/3/4 528/3/4 534/3/4
f 530/6/4 531/6/4 535/6/4
f 534/3/4 530/3/4 535/3/4
f 532/2/4 533/2/4 536/2/4
f 536/2/4 533/2/4 537/2/4
f 534/2/4 535/2/4 538/2/4
f 538/2/4 535/2/4 539/2/4
f 539/2/4 535/2/4 540/2/4
f 535/6/4 531/6/4 541/6/4
f 540/2/4 535/2/4 541/2/4
f 541/6/4 531/6/4 542/6/4
f 539/2/4 540/2/4 543/2/4
f 543/2/4 540/2/4 544/2/4
f 545/2/4 546/2/4 547/2/4
f 547/2/4 546/2/4 548/2/4
f 554/2/5 550/2/5 549/2/5
f 555/2/5 550/2/5 554/2/5
f 556/2/5 552/2/5 551/2/5
f 557/2/5 552/2/5 556/2/5
f 559/2/5 555/2/5 554/2/5
f 559/2/5 558/2/5 557/2/5
f 559/2/5 557/2/5 556/2/5
f 559/2/5 556/2/5 555/2/5
f 559/2/5 554/2/5 553/2/5
f 560/2/5 558/2/5 559/2/5
f 563/6/5 562/6/5 561/6/5
f 564/6/5 562/6/5 563/6/5
f 565/2/5 559/2/5 553/2/5
f 566/1/5 560/1/5 559/1/5
f 566/2/5 559/2/5 565/2/5
f 567/2/5 558/2/5 560/2/5
f 567/1/5 560/1/5 566/1/5
f 568/3/5 566/3/5 565/3/5
f 568/3/5 567/3/5 566/3/5
f 569/2/5 558/2/5 567/2/5
f 569/3/5 567/3/5 568/3/5
f 570/2/5 558/2/5 569/2/5
f 575/2/5 572/2/5 571/2/5
f 576/2/5 572/2/5 575/2/5
f 577/2/5 574/2/5 573/2/5
f 578/2/5 574/2/5 577/2/5
f 583/2/5 580/2/5 579/2/5
f 584/2/5 580/2/5 583/2/5
f 585/2/5 580/2/5 584/2/5
f 586/2/5 580/2/5 585/2/5
f 591/2/5 582/2/5 581/2/5
f 592/2/5 582/2/5 591/2/5
f 593/2/5 582/2/5 592/2/5
f 594/2/5 588/2/5 587/2/5
f 595/2/5 588/2/5 594/2/5
f 596/2/5 591/2/5 581/2/5
f 597/2/5 591/2/5 596/2/5
f 598/2/5 591/2/5 597/2/5
f 599/2/5 598/2/5 597/2/5
f 600/2/5 598/2/5 599/2/5
f 602/2/5 590/2/5 589/2/5
f 603/2/5 601/2/5 600/2/5
f 603/2/5 602/2/5 601/2/5
f 604/2/5 590/2/5 602/2/5
f 604/2/5 602/2/5 603/2/5
f 607/6/5 606/6/5 605/6/5
f 608/6/5 606/6/5 607/6/5
f 611/6/5 610/6/5 609/6/5
f 612/6/5 610/6/5 611/6/5
f 615/6/5 614/6/5 613/6/5
f 616/6/5 614/6/5 615/6/5
f 619/2/5 618/2/5 617/2/5
f 620/2/5 618/2/5 619/2/5
f 621/2/5 618/2/5 620/2/5
f 622/2/5 618/2/5 621/2/5
f 623/2/5 618/2/5 622/2/5
f 624/2/5 618/2/5 623/2/5
f 625/2/5 619/2/5 617/2/5
f 626/2/5 619/2/5 625/2/5
f 629/2/5 619/2/5 626/2/5
f 630/2/5 629/2/5 626/2/5
f 631/2/5 629/2/5 630/2/5
f 632/2/5 628/2/5 627/2/5
f 633/2/5 628/2/5 632/2/5
f 637/6/5 635/6/5 634/6/5
f 638/6/5 635/6/5 637/6/5
f 638/6/5 637/6/5 636/6/5
f 639/6/5 638/6/5 636/6/5
f 640/6/5 638/6/5 639/6/5
f 646/4/5 642/4/5 641/4/5
f 647/4/5 642/4/5 646/4/5
f 650/4/5 644/4/5 643/4/5
f 651/4/5 644/4/5 650/4/5
f 653/2/5 649/2/5 648/2/5
f 653/4/5 646/4/5 645/4/5
f 653/4/5 647/4/5 646/4/5
f 653/4/5 648/4/5 647/4/5
f 654/4/5 652/4/5 651/4/5
f 654/2/5 649/2/5 653/2/5
f 654/4/5 651/4/5 650/4/5
f 654/4/5 650/4/5 649/4/5
f 655/4/5 653/4/5 645/4/5
f 655/4/5 654/4/5 653/4/5
f 656/4/5 652/4/5 654/4/5
f 656/4/5 654/4/5 655/4/5
f 665/4/5 658/4/5 657/4/5
f 666/4/5 658/4/5 665/4/5
f 667/4/5 660/4/5 659/4/5
f 668/4/5 660/4/5 667/4/5
f 669/4/5 660/4/5 668/4/5
f 670/4/5 662/4/5 661/4/5
f 671/4/5 662/4/5 670/4/5
f 672/4/5 662/4/5 671/4/5
f 673/4/5 664/4/5 663/4/5
f 674/4/5 664/4/5 673/4/5
f 675/2/6 676/2/6 679/2/6
f 679/2/6 676/2/6 680/2/6
f 680/2/6 676/2/6 681/2/6
f 677/2/6 678/2/6 682/2/6
f 682/2/6 678/2/6 683/2/6
f 684/2/6 685/2/6 688/2/6
f 688/2/6 685/2/6 689/2/6
f 686/2/6 687/2/6 690/2/6
f 690/2/6 687/2/6 691/2/6
f 692/2/6 693/2/6 695/2/6
f 695/2/6 693/2/6 696/2/6
f 694/2/6 695/2/6 698/2/6
f 696/2/6 697/2/6 698/2/6
f 695/2/6 696/2/6 698/2/6
f 698/2/6 697/2/6 699/2/6
f 699/2/6 697/2/6 700/2/6
f 700/2/6 697/2/6 701/2/6
f 701/2/6 697/2/6 702/2/6
f 702/2/6 697/2/6 703/2/6
f 694/2/6 698/2/6 704/2/6
f 704/2/6 698/2/6 707/2/6
f 705/2/6 706/2/6 708/2/6
f 708/2/6 706/2/6 709/2/6
f 707/2/6 698/2/6 712/2/6
f 707/2/6 712/2/6 713/2/6
f 713/2/6 712/2/6 714/2/6
f 710/2/6 711/2/6 716/2/6
f 714/2/6 715/2/6 717/2/6
f 715/2/6 716/2/6 717/2/6
f 716/2/6 711/2/6 718/2/6
f 717/2/6 716/2/6 718/2/6
f 719/2/6 720/2/6 721/2/6
f 721/2/6 720/2/6 722/2/6
f 722/2/6 720/2/6 723/2/6
f 723/2/6 720/2/6 724/2/6
f 724/2/6 720/2/6 725/2/6
f 725/2/6 720/2/6 726/2/6
f 719/2/6 721/2/6 727/2/6
f 727/2/6 721/2/6 728/2/6
f 728/2/6 721/2/6 731/2/6
f 728/2/6 731/2/6 732/2/6
f 732/2/6 731/2/6 733/2/6
f 729/2/6 730/2/6 734/2/6
f 734/2/6 730/2/6 735/2/6
f 736/6/6 737/6/6 738/6/6
f 736/6/6 738/6/6 739/6/6
f 739/6/6 738/6/6 740/6/6
f 741/6/6 742/6/6 743/6/6
f 743/6/6 742/6/6 744/6/6
f 745/6/6 746/6/6 747/6/6
f 747/6/6 746/6/6 748/6/6
f 749/6/6 750/6/6 751/6/6
f 751/6/6 750/6/6 752/6/6
f 753/4/6 754/4/6 758/4/6
f 758/4/6 754/4/6 759/4/6
f 759/4/6 754/4/6 760/4/6
f 760/4/6 754/4/6 761/4/6
f 755/4/6 756/4/6 764/4/6
f 764/4/6 756/4/6 765/4/6
f 765/4/6 756/4/6 766/4/6
f 766/4/6 756/4/6 767/4/6
f 757/4/6 758/4/6 769/4/6
f 758/4/6 759/4/6 769/4/6
f 769/4/6 759/4/6 770/4/6
f 761/4/6 762/4/6 771/4/6
f 760/4/6 761/4/6 771/4/6
f 771/4/6 762/4/6 772/4/6
f 772/4/6 762/4/6 773/4/6
f 764/4/6 765/4/6 774/4/6
f 763/4/6 764/4/6 774/4/6
f 774/4/6 765/4/6 775/4/6
f 775/4/6 765/4/6 776/4/6
f 767/4/6 768/4/6 777/4/6
f 766/4/6 767/4/6 777/4/6
f 777/4/6 768/4/6 778/4/6
f 779/4/6 780/4/6 781/4/6
f 781/4/6 780/4/6 782/4/6
f 783/6/6 784/6/6 785/6/6
f 785/6/6 784/6/6 786/6/6
f 787/6/6 788/6/6 789/6/6
f 789/6/6 788/6/6 790/6/6
f 790/6/6 788/6/6 791/6/6
f 791/6/6 788/6/6 792/6/6
f 792/6/6 788/6/6 793/6/6
f 793/6/6 788/6/6 794/6/6
f 787/6/6 789/6/6 795/6/6
f 790/6/6 791/6/6 796/6/6
f 796/6/6 791/6/6 797/6/6
f 792/6/6 793/6/6 798/6/6
f 798/6/6 793/6/6 799/6/6
f 794/6/6 788/6/6 800/6/6
f 798/6/6 799/6/6 801/6/6
f 799/6/6 800/6/6 801/6/6
f 796/6/6 797/6/6 801/6/6
f 787/6/6 795/6/6 801/6/6
f 797/6/6 798/6/6 801/6/6
f 795/6/6 796/6/6 801/6/6
f 800/6/6 788/6/6 802/6/6
f 801/6/6 800/6/6 802/6/6
f 809/6/6 810/6/6 811/6/6
f 811/6/6 810/6/6 812/6/6
f 803/6/6 804/6/6 813/6/6
f 813/6/6 804/6/6 814/6/6
f 805/6/6 806/6/6 815/6/6
f 815/6/6 806/6/6 816/6/6
f 807/6/6 808/6/6 817/6/6
f 817/6/6 808/6/6 818/6/6
f 819/6/6 820/6/6 821/6/6
f 821/6/6 820/6/6 822/6/6
f 819/6/6 821/6/6 823/6/6
f 822/6/6 820/6/6 824/6/6
f 819/6/6 823/6/6 825/6/6
f 823/6/6 824/6/6 825/6/6
f 824/6/6 820/6/6 826/6/6
f 825/6/6 824/6/6 826/6/6
