# MagicaVoxel @ Ephtracy

# group
g house6

# material
mtllib house6.mtl
usemtl palette

# normals
vn -1 0 0
vn 1 0 0
vn 0 0 1
vn 0 0 -1
vn 0 -1 0
vn 0 1 0

# texcoords
vt 0.607422 0.5
vt 0.615234 0.5
vt 0.619141 0.5
vt 0.623047 0.5
vt 0.748047 0.5
vt 0.927734 0.5
vt 0.931641 0.5

# verts
v -21 0 -3
v -21 0 -5
v -21 0 -7
v -21 0 -9
v -21 10 -5
v -21 10 -7
v -21 12 -3
v -21 12 -4
v -21 13 -4
v -21 13 -7
v -21 40 -7
v -21 40 -9
v -19 0 14
v -19 0 -3
v -19 0 -5
v -19 0 -7
v -19 0 -9
v -19 0 -14
v -19 9 14
v -19 9 12
v -19 10 -5
v -19 10 -7
v -19 12 -3
v -19 12 -4
v -19 13 -4
v -19 13 -7
v -19 36 12
v -19 36 -7
v -19 36 -9
v -19 36 -14
v -19 40 12
v -19 40 -7
v -19 40 -9
v -19 40 -14
v -16 37 -2
v -16 37 -10
v -16 38 -2
v -16 38 -10
v -15 20 14
v -15 20 12
v -15 31 14
v -15 31 12
v -15 32 14
v -15 32 12
v -15 38 -3
v -15 38 -9
v -15 39 -3
v -15 39 -9
v -13 20 15
v -13 20 14
v -13 21 15
v -13 21 14
v -9 21 14
v -9 21 13
v -9 31 14
v -9 31 13
v -1 21 14
v -1 21 13
v -1 31 14
v -1 31 13
v 3 20 15
v 3 20 14
v 3 21 15
v 3 21 14
v 8 21 14
v 8 21 13
v 8 31 14
v 8 31 13
v 14 21 14
v 14 21 13
v 14 31 14
v 14 31 13
v 18 37 8
v 18 37 -13
v 18 40 8
v 18 40 -13
v 20 0 -0
v 20 0 -3
v 20 0 -4
v 20 0 -6
v 20 3 -4
v 20 3 -6
v 20 5 -0
v 20 5 -3
v -18 37 8
v -18 37 -13
v -18 40 8
v -18 40 -13
v -14 21 14
v -14 21 13
v -14 31 14
v -14 31 13
v -8 21 14
v -8 21 13
v -8 31 14
v -8 31 13
v -4 38 -3
v -4 38 -9
v -4 39 -3
v -4 39 -9
v -3 20 15
v -3 20 14
v -3 21 15
v -3 21 14
v -3 37 -2
v -3 37 -10
v -3 38 -2
v -3 38 -10
v 1 21 14
v 1 21 13
v 1 31 14
v 1 31 13
v 9 21 14
v 9 21 13
v 9 31 14
v 9 31 13
v 13 20 15
v 13 20 14
v 13 21 15
v 13 21 14
v 15 20 14
v 15 20 12
v 15 31 14
v 15 31 12
v 15 32 14
v 15 32 12
v 19 0 14
v 19 0 -11
v 19 0 -12
v 19 0 -14
v 19 3 -4
v 19 3 -6
v 19 5 -0
v 19 5 -3
v 19 5 -4
v 19 5 -6
v 19 7 -0
v 19 7 -3
v 19 9 14
v 19 9 12
v 19 23 -8
v 19 23 -11
v 19 24 -9
v 19 24 -12
v 19 36 12
v 19 36 -8
v 19 36 -9
v 19 36 -14
v 19 40 12
v 19 40 -8
v 19 40 -9
v 19 40 -14
v 20 0 -11
v 20 0 -12
v 20 23 -8
v 20 23 -11
v 20 24 -9
v 20 24 -12
v 20 40 -8
v 20 40 -9
v 21 0 -0
v 21 0 -3
v 21 0 -4
v 21 0 -6
v 21 5 -4
v 21 5 -6
v 21 7 -0
v 21 7 -3
v -13 20 15
v -13 21 15
v -3 20 15
v -3 21 15
v 3 20 15
v 3 21 15
v 13 20 15
v 13 21 15
v -19 0 14
v -19 9 14
v -18 2 14
v -18 7 14
v -15 20 14
v -15 31 14
v -15 32 14
v -14 21 14
v -14 31 14
v -13 20 14
v -13 21 14
v -11 2 14
v -11 7 14
v -10 2 14
v -10 7 14
v -9 21 14
v -9 31 14
v -8 21 14
v -8 31 14
v -3 20 14
v -3 21 14
v -1 20 14
v -1 21 14
v -1 31 14
v 1 20 14
v 1 21 14
v 1 31 14
v 3 20 14
v 3 21 14
v 8 21 14
v 8 31 14
v 9 21 14
v 9 31 14
v 10 2 14
v 10 7 14
v 11 2 14
v 11 7 14
v 13 20 14
v 13 21 14
v 14 21 14
v 14 31 14
v 15 20 14
v 15 31 14
v 15 32 14
v 18 2 14
v 18 7 14
v 19 0 14
v 19 9 14
v -14 21 13
v -14 31 13
v -9 21 13
v -9 31 13
v -8 21 13
v -8 31 13
v -3 21 13
v -3 31 13
v -1 21 13
v -1 31 13
v 1 21 13
v 1 31 13
v 3 21 13
v 3 31 13
v 8 21 13
v 8 31 13
v 9 21 13
v 9 31 13
v 14 21 13
v 14 31 13
v -19 9 12
v -19 36 12
v -19 40 12
v -18 9 12
v -18 36 12
v -15 20 12
v -15 31 12
v -15 32 12
v 15 20 12
v 15 31 12
v 15 32 12
v 18 9 12
v 18 36 12
v 19 9 12
v 19 36 12
v 19 40 12
v 19 5 -0
v 19 7 -0
v 20 0 -0
v 20 5 -0
v 21 0 -0
v 21 7 -0
v -16 37 -2
v -16 38 -2
v -3 37 -2
v -3 38 -2
v -21 0 -3
v -21 12 -3
v -19 0 -3
v -19 12 -3
v -15 38 -3
v -15 39 -3
v -4 38 -3
v -4 39 -3
v -21 12 -4
v -21 13 -4
v -19 12 -4
v -19 13 -4
v 19 3 -4
v 19 5 -4
v 20 0 -4
v 20 3 -4
v 21 0 -4
v 21 5 -4
v -21 0 -7
v -21 10 -7
v -21 13 -7
v -21 40 -7
v -19 0 -7
v -19 10 -7
v -19 13 -7
v -19 36 -7
v -19 40 -7
v 19 23 -8
v 19 36 -8
v 19 40 -8
v 20 23 -8
v 20 40 -8
v 19 0 -11
v 19 23 -11
v 20 0 -11
v 20 23 -11
v -18 37 -13
v -18 40 -13
v 18 37 -13
v 18 40 -13
v -18 37 8
v -18 40 8
v 18 37 8
v 18 40 8
v 19 5 -3
v 19 7 -3
v 20 0 -3
v 20 5 -3
v 21 0 -3
v 21 7 -3
v -21 0 -5
v -21 10 -5
v -19 0 -5
v -19 10 -5
v 19 3 -6
v 19 5 -6
v 20 0 -6
v 20 3 -6
v 21 0 -6
v 21 5 -6
v -21 0 -9
v -21 40 -9
v -19 0 -9
v -19 36 -9
v -19 40 -9
v -15 38 -9
v -15 39 -9
v -4 38 -9
v -4 39 -9
v 19 24 -9
v 19 36 -9
v 19 40 -9
v 20 24 -9
v 20 40 -9
v -16 37 -10
v -16 38 -10
v -3 37 -10
v -3 38 -10
v 19 0 -12
v 19 24 -12
v 20 0 -12
v 20 24 -12
v -19 0 -14
v -19 36 -14
v -19 40 -14
v -18 0 -14
v -18 36 -14
v 18 0 -14
v 18 36 -14
v 19 0 -14
v 19 36 -14
v 19 40 -14
v -19 0 14
v 19 0 14
v -18 0 12
v 18 0 12
v 20 0 -0
v 21 0 -0
v -21 0 -3
v -19 0 -3
v 20 0 -3
v 21 0 -3
v 20 0 -4
v 21 0 -4
v -21 0 -5
v -19 0 -5
v 20 0 -6
v 21 0 -6
v -21 0 -7
v -19 0 -7
v -21 0 -9
v -19 0 -9
v 19 0 -11
v 20 0 -11
v 19 0 -12
v 20 0 -12
v -18 0 -13
v 18 0 -13
v -19 0 -14
v -18 0 -14
v 18 0 -14
v 19 0 -14
v 19 3 -4
v 20 3 -4
v 19 3 -6
v 20 3 -6
v 19 5 -0
v 20 5 -0
v 19 5 -3
v 20 5 -3
v -21 10 -5
v -19 10 -5
v -21 10 -7
v -19 10 -7
v -13 20 15
v -3 20 15
v 3 20 15
v 13 20 15
v -15 20 14
v -13 20 14
v -3 20 14
v -1 20 14
v 1 20 14
v 3 20 14
v 13 20 14
v 15 20 14
v -1 20 13
v 1 20 13
v -15 20 12
v 15 20 12
v 19 23 -8
v 20 23 -8
v 19 23 -11
v 20 23 -11
v -14 31 14
v -9 31 14
v -8 31 14
v -1 31 14
v 1 31 14
v 8 31 14
v 9 31 14
v 14 31 14
v -14 31 13
v -9 31 13
v -8 31 13
v -3 31 13
v -1 31 13
v 1 31 13
v 3 31 13
v 8 31 13
v 9 31 13
v 14 31 13
v 19 5 -4
v 21 5 -4
v 19 5 -6
v 21 5 -6
v 19 7 -0
v 21 7 -0
v 19 7 -3
v 21 7 -3
v -19 9 14
v 19 9 14
v -19 9 12
v -18 9 12
v 18 9 12
v 19 9 12
v -21 12 -3
v -19 12 -3
v -21 12 -4
v -19 12 -4
v -21 13 -4
v -19 13 -4
v -21 13 -7
v -19 13 -7
v -13 21 15
v -3 21 15
v 3 21 15
v 13 21 15
v -14 21 14
v -13 21 14
v -9 21 14
v -8 21 14
v -3 21 14
v -1 21 14
v 1 21 14
v 3 21 14
v 8 21 14
v 9 21 14
v 13 21 14
v 14 21 14
v -14 21 13
v -9 21 13
v -8 21 13
v -3 21 13
v -1 21 13
v 1 21 13
v 3 21 13
v 8 21 13
v 9 21 13
v 14 21 13
v 19 24 -9
v 20 24 -9
v 19 24 -12
v 20 24 -12
v -15 32 14
v 15 32 14
v -15 32 12
v 15 32 12
v -18 37 8
v 18 37 8
v -16 37 -2
v -3 37 -2
v -16 37 -10
v -3 37 -10
v -18 37 -13
v 18 37 -13
v -16 38 -2
v -3 38 -2
v -15 38 -3
v -4 38 -3
v -15 38 -9
v -4 38 -9
v -16 38 -10
v -3 38 -10
v -15 39 -3
v -4 39 -3
v -13 39 -4
v -12 39 -4
v -7 39 -4
v -6 39 -4
v -13 39 -8
v -12 39 -8
v -7 39 -8
v -6 39 -8
v -15 39 -9
v -4 39 -9
v -19 40 12
v 19 40 12
v -18 40 8
v 18 40 8
v -21 40 -7
v -19 40 -7
v 19 40 -8
v 20 40 -8
v -21 40 -9
v -19 40 -9
v 19 40 -9
v 20 40 -9
v -18 40 -13
v 18 40 -13
v -19 40 -14
v 19 40 -14

# faces
f 5/6/1 2/6/1 1/6/1
f 6/6/1 4/6/1 3/6/1
f 7/6/1 5/6/1 1/6/1
f 7/6/1 6/6/1 5/6/1
f 8/6/1 6/6/1 7/6/1
f 9/6/1 6/6/1 8/6/1
f 10/6/1 4/6/1 6/6/1
f 10/6/1 6/6/1 9/6/1
f 11/6/1 4/6/1 10/6/1
f 12/6/1 4/6/1 11/6/1
f 19/4/1 14/4/1 13/4/1
f 20/4/1 14/4/1 19/4/1
f 21/4/1 16/4/1 15/4/1
f 22/4/1 16/4/1 21/4/1
f 23/4/1 14/4/1 20/4/1
f 25/4/1 24/4/1 23/4/1
f 27/4/1 23/4/1 20/4/1
f 27/4/1 26/4/1 25/4/1
f 27/4/1 25/4/1 23/4/1
f 28/4/1 26/4/1 27/4/1
f 29/4/1 18/4/1 17/4/1
f 30/4/1 18/4/1 29/4/1
f 31/6/1 28/6/1 27/6/1
f 32/6/1 28/6/1 31/6/1
f 33/6/1 30/6/1 29/6/1
f 34/6/1 30/6/1 33/6/1
f 37/6/1 36/6/1 35/6/1
f 38/6/1 36/6/1 37/6/1
f 41/2/1 40/2/1 39/2/1
f 42/2/1 40/2/1 41/2/1
f 43/3/1 42/3/1 41/3/1
f 44/3/1 42/3/1 43/3/1
f 47/6/1 46/6/1 45/6/1
f 48/6/1 46/6/1 47/6/1
f 51/2/1 50/2/1 49/2/1
f 52/2/1 50/2/1 51/2/1
f 55/2/1 54/2/1 53/2/1
f 56/2/1 54/2/1 55/2/1
f 59/4/1 58/4/1 57/4/1
f 60/4/1 58/4/1 59/4/1
f 63/2/1 62/2/1 61/2/1
f 64/2/1 62/2/1 63/2/1
f 67/2/1 66/2/1 65/2/1
f 68/2/1 66/2/1 67/2/1
f 71/2/1 70/2/1 69/2/1
f 72/2/1 70/2/1 71/2/1
f 75/6/1 74/6/1 73/6/1
f 76/6/1 74/6/1 75/6/1
f 81/6/1 80/6/1 79/6/1
f 82/6/1 80/6/1 81/6/1
f 83/6/1 78/6/1 77/6/1
f 84/6/1 78/6/1 83/6/1
f 85/6/2 86/6/2 87/6/2
f 87/6/2 86/6/2 88/6/2
f 89/2/2 90/2/2 91/2/2
f 91/2/2 90/2/2 92/2/2
f 93/2/2 94/2/2 95/2/2
f 95/2/2 94/2/2 96/2/2
f 97/6/2 98/6/2 99/6/2
f 99/6/2 98/6/2 100/6/2
f 101/2/2 102/2/2 103/2/2
f 103/2/2 102/2/2 104/2/2
f 105/6/2 106/6/2 107/6/2
f 107/6/2 106/6/2 108/6/2
f 109/4/2 110/4/2 111/4/2
f 111/4/2 110/4/2 112/4/2
f 113/2/2 114/2/2 115/2/2
f 115/2/2 114/2/2 116/2/2
f 117/2/2 118/2/2 119/2/2
f 119/2/2 118/2/2 120/2/2
f 121/2/2 122/2/2 123/2/2
f 123/2/2 122/2/2 124/2/2
f 123/3/2 124/3/2 125/3/2
f 125/3/2 124/3/2 126/3/2
f 127/4/2 128/4/2 131/4/2
f 131/4/2 128/4/2 132/4/2
f 127/4/2 131/4/2 133/4/2
f 133/4/2 131/4/2 134/4/2
f 134/4/2 131/4/2 135/4/2
f 132/4/2 128/4/2 136/4/2
f 127/4/2 133/4/2 137/4/2
f 134/4/2 135/4/2 138/4/2
f 135/4/2 136/4/2 138/4/2
f 127/4/2 137/4/2 139/4/2
f 137/4/2 138/4/2 139/4/2
f 139/4/2 138/4/2 140/4/2
f 138/4/2 136/4/2 141/4/2
f 140/4/2 138/4/2 141/4/2
f 136/4/2 128/4/2 141/4/2
f 141/4/2 128/4/2 142/4/2
f 129/4/2 130/4/2 144/4/2
f 140/4/2 141/4/2 145/4/2
f 145/4/2 141/4/2 146/4/2
f 143/4/2 144/4/2 147/4/2
f 144/4/2 130/4/2 148/4/2
f 147/4/2 144/4/2 148/4/2
f 145/6/2 146/6/2 149/6/2
f 149/6/2 146/6/2 150/6/2
f 147/6/2 148/6/2 151/6/2
f 151/6/2 148/6/2 152/6/2
f 153/6/2 154/6/2 156/6/2
f 155/6/2 156/6/2 157/6/2
f 156/6/2 154/6/2 158/6/2
f 157/6/2 156/6/2 158/6/2
f 155/6/2 157/6/2 159/6/2
f 159/6/2 157/6/2 160/6/2
f 163/6/2 164/6/2 165/6/2
f 165/6/2 164/6/2 166/6/2
f 161/6/2 162/6/2 167/6/2
f 167/6/2 162/6/2 168/6/2
f 171/2/3 170/2/3 169/2/3
f 172/2/3 170/2/3 171/2/3
f 175/2/3 174/2/3 173/2/3
f 176/2/3 174/2/3 175/2/3
f 179/4/3 178/4/3 177/4/3
f 180/4/3 178/4/3 179/4/3
f 184/2/3 182/2/3 181/2/3
f 185/3/3 183/3/3 182/3/3
f 185/2/3 182/2/3 184/2/3
f 186/2/3 184/2/3 181/2/3
f 187/2/3 184/2/3 186/2/3
f 188/4/3 179/4/3 177/4/3
f 188/3/3 180/3/3 179/3/3
f 189/4/3 178/4/3 180/4/3
f 189/3/3 180/3/3 188/3/3
f 190/4/3 188/4/3 177/4/3
f 190/4/3 189/4/3 188/4/3
f 191/4/3 178/4/3 189/4/3
f 191/4/3 189/4/3 190/4/3
f 193/3/3 183/3/3 185/3/3
f 194/2/3 193/2/3 192/2/3
f 195/3/3 183/3/3 193/3/3
f 195/2/3 193/2/3 194/2/3
f 198/2/3 197/2/3 196/2/3
f 199/2/3 197/2/3 198/2/3
f 200/3/3 183/3/3 195/3/3
f 201/4/3 199/4/3 198/4/3
f 201/4/3 200/4/3 199/4/3
f 202/4/3 200/4/3 201/4/3
f 203/3/3 183/3/3 200/3/3
f 203/4/3 200/4/3 202/4/3
f 204/2/3 202/2/3 201/2/3
f 205/2/3 202/2/3 204/2/3
f 207/3/3 183/3/3 203/3/3
f 208/2/3 207/2/3 206/2/3
f 209/3/3 183/3/3 207/3/3
f 209/2/3 207/2/3 208/2/3
f 210/4/3 190/4/3 177/4/3
f 210/3/3 191/3/3 190/3/3
f 211/4/3 178/4/3 191/4/3
f 211/3/3 191/3/3 210/3/3
f 212/4/3 210/4/3 177/4/3
f 212/4/3 211/4/3 210/4/3
f 213/4/3 178/4/3 211/4/3
f 213/4/3 211/4/3 212/4/3
f 216/2/3 215/2/3 214/2/3
f 217/3/3 183/3/3 209/3/3
f 218/2/3 216/2/3 214/2/3
f 218/2/3 217/2/3 216/2/3
f 219/3/3 183/3/3 217/3/3
f 219/2/3 217/2/3 218/2/3
f 220/3/3 183/3/3 219/3/3
f 221/4/3 212/4/3 177/4/3
f 221/3/3 213/3/3 212/3/3
f 222/4/3 178/4/3 213/4/3
f 222/3/3 213/3/3 221/3/3
f 223/4/3 221/4/3 177/4/3
f 223/4/3 222/4/3 221/4/3
f 224/4/3 178/4/3 222/4/3
f 224/4/3 222/4/3 223/4/3
f 227/5/3 226/5/3 225/5/3
f 228/5/3 226/5/3 227/5/3
f 231/5/3 230/5/3 229/5/3
f 232/5/3 230/5/3 231/5/3
f 233/2/3 232/2/3 231/2/3
f 234/2/3 232/2/3 233/2/3
f 237/2/3 236/2/3 235/2/3
f 238/2/3 236/2/3 237/2/3
f 239/5/3 238/5/3 237/5/3
f 240/5/3 238/5/3 239/5/3
f 243/5/3 242/5/3 241/5/3
f 244/5/3 242/5/3 243/5/3
f 248/4/3 246/4/3 245/4/3
f 249/6/3 247/6/3 246/6/3
f 249/4/3 246/4/3 248/4/3
f 250/1/3 249/1/3 248/1/3
f 251/1/3 249/1/3 250/1/3
f 252/1/3 249/1/3 251/1/3
f 253/1/3 250/1/3 248/1/3
f 255/1/3 249/1/3 252/1/3
f 256/1/3 254/1/3 253/1/3
f 256/1/3 255/1/3 254/1/3
f 256/1/3 253/1/3 248/1/3
f 257/6/3 247/6/3 249/6/3
f 257/1/3 255/1/3 256/1/3
f 257/1/3 249/1/3 255/1/3
f 258/4/3 257/4/3 256/4/3
f 259/6/3 247/6/3 257/6/3
f 259/4/3 257/4/3 258/4/3
f 260/6/3 247/6/3 259/6/3
f 264/6/3 262/6/3 261/6/3
f 265/6/3 264/6/3 263/6/3
f 266/6/3 262/6/3 264/6/3
f 266/6/3 264/6/3 265/6/3
f 269/6/3 268/6/3 267/6/3
f 270/6/3 268/6/3 269/6/3
f 273/6/3 272/6/3 271/6/3
f 274/6/3 272/6/3 273/6/3
f 277/6/3 276/6/3 275/6/3
f 278/6/3 276/6/3 277/6/3
f 281/6/3 280/6/3 279/6/3
f 282/6/3 280/6/3 281/6/3
f 286/6/3 284/6/3 283/6/3
f 287/6/3 286/6/3 285/6/3
f 288/6/3 284/6/3 286/6/3
f 288/6/3 286/6/3 287/6/3
f 293/6/3 290/6/3 289/6/3
f 294/6/3 290/6/3 293/6/3
f 295/6/3 292/6/3 291/6/3
f 296/6/3 292/6/3 295/6/3
f 297/6/3 292/6/3 296/6/3
f 301/6/3 299/6/3 298/6/3
f 301/6/3 300/6/3 299/6/3
f 302/6/3 300/6/3 301/6/3
f 305/6/3 304/6/3 303/6/3
f 306/6/3 304/6/3 305/6/3
f 309/6/3 308/6/3 307/6/3
f 310/6/3 308/6/3 309/6/3
f 311/6/4 312/6/4 313/6/4
f 313/6/4 312/6/4 314/6/4
f 315/6/4 316/6/4 318/6/4
f 317/6/4 318/6/4 319/6/4
f 318/6/4 316/6/4 320/6/4
f 319/6/4 318/6/4 320/6/4
f 321/6/4 322/6/4 323/6/4
f 323/6/4 322/6/4 324/6/4
f 325/6/4 326/6/4 328/6/4
f 327/6/4 328/6/4 329/6/4
f 328/6/4 326/6/4 330/6/4
f 329/6/4 328/6/4 330/6/4
f 331/6/4 332/6/4 333/6/4
f 333/6/4 332/6/4 334/6/4
f 334/6/4 332/6/4 335/6/4
f 336/6/4 337/6/4 338/6/4
f 338/6/4 337/6/4 339/6/4
f 340/6/4 341/6/4 343/6/4
f 341/6/4 342/6/4 343/6/4
f 343/6/4 342/6/4 344/6/4
f 345/6/4 346/6/4 347/6/4
f 347/6/4 346/6/4 348/6/4
f 349/6/4 350/6/4 351/6/4
f 351/6/4 350/6/4 352/6/4
f 353/4/4 354/4/4 356/4/4
f 354/6/4 355/6/4 357/6/4
f 356/4/4 354/4/4 357/4/4
f 356/3/4 357/3/4 358/3/4
f 357/6/4 355/6/4 359/6/4
f 358/3/4 357/3/4 359/3/4
f 358/4/4 359/4/4 360/4/4
f 359/6/4 355/6/4 361/6/4
f 360/4/4 359/4/4 361/4/4
f 361/6/4 355/6/4 362/6/4
f 365/4/5 364/4/5 363/4/5
f 366/4/5 364/4/5 365/4/5
f 370/4/5 365/4/5 363/4/5
f 371/6/5 368/6/5 367/6/5
f 372/6/5 368/6/5 371/6/5
f 375/6/5 370/6/5 369/6/5
f 376/4/5 365/4/5 370/4/5
f 376/6/5 370/6/5 375/6/5
f 377/6/5 374/6/5 373/6/5
f 378/6/5 374/6/5 377/6/5
f 380/4/5 365/4/5 376/4/5
f 381/6/5 380/6/5 379/6/5
f 382/4/5 365/4/5 380/4/5
f 382/6/5 380/6/5 381/6/5
f 383/4/5 364/4/5 366/4/5
f 385/4/5 383/4/5 366/4/5
f 385/6/5 384/6/5 383/6/5
f 386/6/5 384/6/5 385/6/5
f 387/1/5 366/1/5 365/1/5
f 387/4/5 365/4/5 382/4/5
f 388/4/5 385/4/5 366/4/5
f 388/1/5 366/1/5 387/1/5
f 389/4/5 387/4/5 382/4/5
f 390/3/5 388/3/5 387/3/5
f 390/4/5 387/4/5 389/4/5
f 391/4/5 385/4/5 388/4/5
f 391/3/5 388/3/5 390/3/5
f 392/4/5 385/4/5 391/4/5
f 395/6/5 394/6/5 393/6/5
f 396/6/5 394/6/5 395/6/5
f 399/6/5 398/6/5 397/6/5
f 400/6/5 398/6/5 399/6/5
f 403/6/5 402/6/5 401/6/5
f 404/6/5 402/6/5 403/6/5
f 410/2/5 406/2/5 405/2/5
f 411/2/5 406/2/5 410/2/5
f 414/2/5 408/2/5 407/2/5
f 415/2/5 408/2/5 414/2/5
f 417/4/5 413/4/5 412/4/5
f 417/2/5 410/2/5 409/2/5
f 417/2/5 411/2/5 410/2/5
f 417/2/5 412/2/5 411/2/5
f 418/2/5 416/2/5 415/2/5
f 418/4/5 413/4/5 417/4/5
f 418/2/5 415/2/5 414/2/5
f 418/2/5 414/2/5 413/2/5
f 419/2/5 417/2/5 409/2/5
f 419/2/5 418/2/5 417/2/5
f 420/2/5 416/2/5 418/2/5
f 420/2/5 418/2/5 419/2/5
f 423/6/5 422/6/5 421/6/5
f 424/6/5 422/6/5 423/6/5
f 433/3/5 426/3/5 425/3/5
f 434/3/5 426/3/5 433/3/5
f 435/3/5 428/3/5 427/3/5
f 436/3/5 428/3/5 435/3/5
f 437/3/5 428/3/5 436/3/5
f 438/3/5 430/3/5 429/3/5
f 439/3/5 430/3/5 438/3/5
f 440/3/5 430/3/5 439/3/5
f 441/3/5 432/3/5 431/3/5
f 442/3/5 432/3/5 441/3/5
f 443/6/6 444/6/6 445/6/6
f 445/6/6 444/6/6 446/6/6
f 447/6/6 448/6/6 449/6/6
f 449/6/6 448/6/6 450/6/6
f 451/4/6 452/4/6 453/4/6
f 453/4/6 452/4/6 454/4/6
f 454/4/6 452/4/6 455/4/6
f 455/4/6 452/4/6 456/4/6
f 457/6/6 458/6/6 459/6/6
f 459/6/6 458/6/6 460/6/6
f 461/6/6 462/6/6 463/6/6
f 463/6/6 462/6/6 464/6/6
f 465/2/6 466/2/6 470/2/6
f 470/2/6 466/2/6 471/2/6
f 471/2/6 466/2/6 472/2/6
f 472/2/6 466/2/6 473/2/6
f 467/2/6 468/2/6 476/2/6
f 476/2/6 468/2/6 477/2/6
f 477/2/6 468/2/6 478/2/6
f 478/2/6 468/2/6 479/2/6
f 469/2/6 470/2/6 481/2/6
f 470/2/6 471/2/6 481/2/6
f 481/2/6 471/2/6 482/2/6
f 473/2/6 474/2/6 483/2/6
f 472/2/6 473/2/6 483/2/6
f 483/2/6 474/2/6 484/2/6
f 484/2/6 474/2/6 485/2/6
f 476/2/6 477/2/6 486/2/6
f 475/2/6 476/2/6 486/2/6
f 486/2/6 477/2/6 487/2/6
f 487/2/6 477/2/6 488/2/6
f 479/2/6 480/2/6 489/2/6
f 478/2/6 479/2/6 489/2/6
f 489/2/6 480/2/6 490/2/6
f 491/6/6 492/6/6 493/6/6
f 493/6/6 492/6/6 494/6/6
f 495/3/6 496/3/6 497/3/6
f 497/3/6 496/3/6 498/3/6
f 499/6/6 500/6/6 501/6/6
f 501/6/6 500/6/6 502/6/6
f 499/6/6 501/6/6 503/6/6
f 502/6/6 500/6/6 504/6/6
f 499/6/6 503/6/6 505/6/6
f 503/6/6 504/6/6 505/6/6
f 504/6/6 500/6/6 506/6/6
f 505/6/6 504/6/6 506/6/6
f 507/6/6 508/6/6 509/6/6
f 509/6/6 508/6/6 510/6/6
f 507/6/6 509/6/6 511/6/6
f 510/6/6 508/6/6 512/6/6
f 507/6/6 511/6/6 513/6/6
f 511/6/6 512/6/6 513/6/6
f 512/6/6 508/6/6 514/6/6
f 513/6/6 512/6/6 514/6/6
f 515/6/6 516/6/6 517/6/6
f 517/6/6 516/6/6 518/6/6
f 518/6/6 516/6/6 519/6/6
f 519/6/6 516/6/6 520/6/6
f 515/6/6 517/6/6 521/6/6
f 517/7/6 518/7/6 521/7/6
f 518/6/6 519/6/6 522/6/6
f 521/7/6 518/7/6 522/7/6
f 519/7/6 520/7/6 523/7/6
f 522/6/6 519/6/6 523/6/6
f 520/6/6 516/6/6 524/6/6
f 523/7/6 520/7/6 524/7/6
f 522/6/6 523/6/6 525/6/6
f 521/6/6 522/6/6 525/6/6
f 523/6/6 524/6/6 525/6/6
f 515/6/6 521/6/6 525/6/6
f 524/6/6 516/6/6 526/6/6
f 525/6/6 524/6/6 526/6/6
f 527/6/6 528/6/6 529/6/6
f 529/6/6 528/6/6 530/6/6
f 527/6/6 529/6/6 532/6/6
f 530/6/6 528/6/6 533/6/6
f 531/6/6 532/6/6 535/6/6
f 532/6/6 529/6/6 536/6/6
f 535/6/6 532/6/6 536/6/6
f 533/6/6 534/6/6 537/6/6
f 530/6/6 533/6/6 537/6/6
f 537/6/6 534/6/6 538/6/6
f 536/6/6 529/6/6 539/6/6
f 530/6/6 537/6/6 540/6/6
f 536/6/6 539/6/6 541/6/6
f 539/6/6 540/6/6 541/6/6
f 540/6/6 537/6/6 542/6/6
f 541/6/6 540/6/6 542/6/6
